<svg width="30" height="30" viewBox="0 0 30 30" fill="none" xmlns="http://www.w3.org/2000/svg">
<path d="M27.5862 22.3748C26.5828 21.3638 24.1526 19.8884 22.9736 19.2938C21.4381 18.5204 21.3118 18.4572 20.1049 19.3538C19.2999 19.9522 18.7647 20.4867 17.8226 20.2858C16.8805 20.0849 14.8332 18.9519 13.0406 17.165C11.248 15.3781 10.0494 13.2714 9.84779 12.3325C9.64622 11.3935 10.1896 10.8647 10.7823 10.0578C11.6176 8.9204 11.5545 8.73084 10.8405 7.1954C10.2838 6.00117 8.7654 3.59376 7.75062 2.5954C6.66507 1.52313 6.66507 1.71269 5.96559 2.00334C5.39614 2.24294 4.84982 2.53419 4.33348 2.87343C3.32249 3.5451 2.76139 4.10304 2.369 4.94153C1.97661 5.78002 1.80032 7.74576 3.82672 11.427C5.85312 15.1083 7.27482 16.9906 10.2174 19.925C13.16 22.8594 15.4228 24.4372 18.7306 26.2923C22.8226 28.5841 24.3921 28.1374 25.2331 27.7456C26.0741 27.3539 26.6346 26.7978 27.3076 25.7868C27.6477 25.2714 27.9396 24.7257 28.1795 24.1566C28.4708 23.4597 28.6604 23.4597 27.5862 22.3748Z" stroke="#949CAD" stroke-width="2.62851" stroke-linecap="round" stroke-linejoin="round"/>
</svg>
