<svg width="28" height="28" viewBox="0 0 28 28" fill="none" xmlns="http://www.w3.org/2000/svg">
<path d="M8.15134 22.528C7.61411 22.528 7.08894 22.6875 6.64225 22.9863C6.19556 23.2851 5.84741 23.7099 5.64182 24.2069C5.43624 24.7038 5.38244 25.2507 5.48725 25.7782C5.59206 26.3058 5.85076 26.7904 6.23064 27.1707C6.61052 27.5511 7.09451 27.8101 7.62142 27.9151C8.14832 28.02 8.69447 27.9661 9.19081 27.7603C9.68714 27.5544 10.1114 27.2059 10.4098 26.7586C10.7083 26.3114 10.8676 25.7855 10.8676 25.2476C10.8679 24.8904 10.7979 24.5366 10.6615 24.2065C10.5251 23.8764 10.325 23.5764 10.0727 23.3238C9.82045 23.0712 9.52088 22.8709 9.19119 22.7343C8.86149 22.5978 8.50813 22.5276 8.15134 22.528Z" fill="#949CAD"/>
<path d="M21.7381 22.528C21.2009 22.528 20.6757 22.6875 20.229 22.9863C19.7824 23.2851 19.4342 23.7099 19.2286 24.2069C19.023 24.7038 18.9692 25.2507 19.074 25.7782C19.1789 26.3058 19.4376 26.7904 19.8174 27.1707C20.1973 27.5511 20.6813 27.8101 21.2082 27.9151C21.7351 28.02 22.2813 27.9661 22.7776 27.7603C23.2739 27.5544 23.6982 27.2059 23.9966 26.7586C24.2951 26.3114 24.4544 25.7855 24.4544 25.2476C24.4547 24.8904 24.3847 24.5366 24.2483 24.2065C24.1119 23.8764 23.9118 23.5764 23.6595 23.3238C23.4072 23.0712 23.1077 22.8709 22.778 22.7343C22.4483 22.5978 22.0949 22.5276 21.7381 22.528Z" fill="#949CAD"/>
<path d="M19.7647 15.729C20.2499 15.7303 20.7265 15.601 21.1445 15.3544C21.5626 15.1079 21.9067 14.7533 22.1408 14.3278L27 5.49977C27.1146 5.29363 27.1735 5.0611 27.1709 4.82517C27.1682 4.58925 27.104 4.35811 26.9848 4.15463C26.8655 3.95115 26.6952 3.78239 26.4908 3.66504C26.2863 3.54769 26.0548 3.48581 25.8192 3.48555H5.71924L4.44128 0.765869H0V3.48555H2.71628L7.60703 13.8096L5.77269 17.1277C5.5444 17.5421 5.42783 18.0088 5.43445 18.482C5.44107 18.9551 5.57066 19.4184 5.81046 19.8262C6.05025 20.234 6.39199 20.5722 6.80201 20.8075C7.21204 21.0428 7.67621 21.1672 8.14883 21.1683H24.4513V18.4486H8.15126L9.64545 15.729H19.7647ZM7.00935 6.20766H23.5159L19.7671 13.019H10.2285L7.00935 6.20766Z" fill="#949CAD"/>
</svg>
