<svg width="27" height="22" viewBox="0 0 27 22" fill="none" xmlns="http://www.w3.org/2000/svg">
<path d="M23.4119 21.2487C23.2968 21.2489 23.1828 21.2263 23.0765 21.1822C22.9702 21.1381 22.8737 21.0734 22.7925 20.9919L3.51722 1.71656C3.35985 1.55091 3.27341 1.33034 3.27634 1.10187C3.27926 0.873406 3.37132 0.65512 3.53288 0.493557C3.69445 0.331993 3.91273 0.239935 4.1412 0.23701C4.36966 0.234085 4.59024 0.320525 4.75588 0.477899L24.0312 19.7532C24.1536 19.8757 24.237 20.0318 24.2708 20.2017C24.3046 20.3716 24.2872 20.5477 24.2209 20.7078C24.1547 20.8678 24.0424 21.0046 23.8984 21.1009C23.7544 21.1972 23.5851 21.2486 23.4119 21.2487ZM13.7556 17.7441C11.4836 17.7441 9.2927 17.0716 7.2436 15.7454C5.37795 14.5407 3.69848 12.8152 2.38644 10.7623V10.7579C3.47835 9.19341 4.67429 7.87042 5.95895 6.80371C5.97057 6.79399 5.98005 6.78197 5.98679 6.7684C5.99353 6.75484 5.99738 6.74002 5.9981 6.72489C5.99882 6.70976 5.99639 6.69464 5.99097 6.6805C5.98555 6.66636 5.97726 6.65349 5.96661 6.64271L4.87581 5.55355C4.85642 5.534 4.83039 5.52248 4.80289 5.52126C4.77539 5.52004 4.74844 5.52922 4.72741 5.54698C3.3628 6.69692 2.09622 8.10753 0.944628 9.75907C0.7465 10.0434 0.637383 10.3803 0.631143 10.7268C0.624903 11.0733 0.721821 11.4139 0.909582 11.7052C2.35578 13.9684 4.21705 15.8746 6.29134 17.2168C8.62683 18.7298 11.1403 19.4964 13.7556 19.4964C15.1673 19.492 16.5689 19.2594 17.9064 18.8075C17.924 18.8015 17.9398 18.7911 17.9523 18.7773C17.9648 18.7635 17.9736 18.7468 17.9778 18.7286C17.9821 18.7105 17.9816 18.6915 17.9765 18.6736C17.9713 18.6557 17.9617 18.6394 17.9485 18.6263L16.7668 17.4446C16.7396 17.418 16.706 17.399 16.6692 17.3894C16.6324 17.3798 16.5938 17.3799 16.5571 17.3898C15.6419 17.6255 14.7006 17.7445 13.7556 17.7441ZM26.6339 9.78207C25.185 7.54131 23.3051 5.63788 21.1979 4.27711C18.8668 2.77013 16.2931 1.97338 13.7556 1.97338C12.3589 1.97586 10.9725 2.21336 9.65466 2.67594C9.6371 2.68205 9.62139 2.69253 9.609 2.70639C9.59661 2.72025 9.58795 2.73704 9.58384 2.75517C9.57973 2.77331 9.58031 2.79219 9.58551 2.81003C9.59072 2.82788 9.60038 2.84411 9.61359 2.85719L10.7937 4.03726C10.8211 4.06426 10.8552 4.08355 10.8925 4.09316C10.9298 4.10278 10.969 4.10238 11.0061 4.09202C11.9025 3.84953 12.827 3.72636 13.7556 3.72568C15.9838 3.72568 18.1681 4.40634 20.2473 5.75178C22.148 6.97839 23.8472 8.70221 25.1625 10.7349C25.1635 10.7361 25.164 10.7377 25.164 10.7393C25.164 10.7409 25.1635 10.7424 25.1625 10.7436C24.2077 12.2467 23.0229 13.5907 21.6514 14.7263C21.6396 14.736 21.63 14.748 21.6232 14.7616C21.6163 14.7752 21.6124 14.7901 21.6116 14.8053C21.6108 14.8205 21.6133 14.8356 21.6187 14.8499C21.6241 14.8641 21.6324 14.877 21.6431 14.8878L22.7329 15.977C22.7521 15.9965 22.778 16.008 22.8054 16.0093C22.8328 16.0106 22.8596 16.0016 22.8807 15.9841C24.345 14.7512 25.6125 13.302 26.6394 11.6866C26.8209 11.4019 26.9169 11.0711 26.9159 10.7335C26.9149 10.3959 26.8171 10.0657 26.6339 9.78207Z" fill="#949CAD"/>
<path d="M13.7742 5.47803C13.3805 5.47782 12.9879 5.5219 12.604 5.60945C12.5846 5.61348 12.5667 5.62269 12.5521 5.6361C12.5376 5.64951 12.5269 5.66662 12.5213 5.68561C12.5157 5.7046 12.5153 5.72476 12.5202 5.74394C12.5252 5.76312 12.5352 5.78061 12.5493 5.79454L18.7146 11.9583C18.7286 11.9723 18.7461 11.9824 18.7652 11.9873C18.7844 11.9922 18.8046 11.9919 18.8236 11.9862C18.8426 11.9806 18.8597 11.97 18.8731 11.9554C18.8865 11.9408 18.8957 11.9229 18.8997 11.9035C19.0753 11.1336 19.0751 10.3341 18.8992 9.56423C18.7234 8.79441 18.3764 8.07409 17.8839 7.45678C17.3915 6.83947 16.7664 6.34102 16.0549 5.99846C15.3434 5.65589 14.5639 5.47801 13.7742 5.47803ZM8.83385 9.51161C8.81992 9.49753 8.80244 9.48749 8.78326 9.48256C8.76408 9.47763 8.74392 9.47799 8.72493 9.48361C8.70594 9.48923 8.68882 9.49989 8.67541 9.51447C8.662 9.52904 8.65279 9.54698 8.64877 9.56637C8.45018 10.4339 8.47511 11.3377 8.72124 12.1931C8.96736 13.0484 9.42661 13.8272 10.0559 14.4565C10.6853 15.0859 11.4641 15.5451 12.3194 15.7912C13.1747 16.0373 14.0785 16.0623 14.9461 15.8637C14.9655 15.8597 14.9834 15.8505 14.998 15.8371C15.0126 15.8236 15.0232 15.8065 15.0288 15.7875C15.0345 15.7685 15.0348 15.7484 15.0299 15.7292C15.025 15.71 15.0149 15.6925 15.0009 15.6786L8.83385 9.51161Z" fill="#949CAD"/>
</svg>
