<svg width="30" height="21" viewBox="0 0 30 21" fill="none" xmlns="http://www.w3.org/2000/svg">
<path d="M15.2622 2.15747C10.6895 2.15747 5.99889 4.80405 2.30623 10.0972C2.20083 10.25 2.14306 10.4305 2.14025 10.6161C2.13743 10.8017 2.18967 10.9839 2.29039 11.1398C5.12764 15.5811 9.7555 19.0543 15.2622 19.0543C20.7091 19.0543 25.432 15.5705 28.2745 11.1192C28.3729 10.9664 28.4252 10.7885 28.4252 10.6068C28.4252 10.425 28.3729 10.2471 28.2745 10.0943C25.4255 5.69407 20.668 2.15747 15.2622 2.15747Z" stroke="#949CAD" stroke-width="2.62851" stroke-linecap="round" stroke-linejoin="round"/>
<path d="M15.2822 15.2995C17.8744 15.2995 19.9757 13.1981 19.9757 10.6059C19.9757 8.01373 17.8744 5.91235 15.2822 5.91235C12.69 5.91235 10.5886 8.01373 10.5886 10.6059C10.5886 13.1981 12.69 15.2995 15.2822 15.2995Z" stroke="#949CAD" stroke-width="2.62851" stroke-miterlimit="10"/>
</svg>
