<svg width="31" height="32" viewBox="0 0 31 32" fill="none" xmlns="http://www.w3.org/2000/svg">
<path fill-rule="evenodd" clip-rule="evenodd" d="M30.8971 16.5375C30.8971 15.4503 30.7995 14.4049 30.6183 13.4012H16.1774V19.3323H24.4293C24.0739 21.2489 22.9936 22.8728 21.3697 23.9601V27.8072H26.3251C29.2244 25.1379 30.8971 21.2071 30.8971 16.5375Z" fill="#4285F4"/>
<path fill-rule="evenodd" clip-rule="evenodd" d="M16.1774 31.522C20.3173 31.522 23.7881 30.149 26.325 27.8072L21.3697 23.9601C19.9967 24.88 18.2404 25.4237 16.1774 25.4237C12.1839 25.4237 8.80367 22.7264 7.59794 19.1023H2.47534V23.0749C4.99831 28.086 10.1836 31.522 16.1774 31.522Z" fill="#34A853"/>
<path fill-rule="evenodd" clip-rule="evenodd" d="M7.59795 19.1022C7.29129 18.1823 7.11705 17.1996 7.11705 16.189C7.11705 15.1784 7.29129 14.1957 7.59795 13.2757V9.3031H2.47535C1.43689 11.373 0.844482 13.7148 0.844482 16.189C0.844482 18.6632 1.43689 21.0049 2.47535 23.0749L7.59795 19.1022Z" fill="#FBBC05"/>
<path fill-rule="evenodd" clip-rule="evenodd" d="M16.1774 6.95441C18.4286 6.95441 20.4497 7.72803 22.0388 9.24738L26.4366 4.84962C23.7812 2.37543 20.3103 0.856079 16.1774 0.856079C10.1836 0.856079 4.99831 4.29205 2.47534 9.30314L7.59794 13.2758C8.80367 9.65162 12.1839 6.95441 16.1774 6.95441Z" fill="#EA4335"/>
</svg>
