<svg width="23" height="28" viewBox="0 0 23 28" fill="none" xmlns="http://www.w3.org/2000/svg">
    <path
        d="M4.0507 1.33584C4.00348 1.34775 3.95909 1.36943 3.92021 1.39957C3.88133 1.42971 3.84876 1.46766 3.82447 1.51117C3.69584 1.6613 3.59291 1.83303 3.52008 2.01889C3.49847 2.09113 3.44382 2.23035 3.40315 2.33083C3.3288 2.50816 3.32499 2.5121 3.26271 2.5121C3.20043 2.5121 3.19281 2.50423 3.12418 2.36106C3.0413 2.20467 3.02166 2.02071 3.06953 1.84941C3.08923 1.6885 3.08732 1.66815 3.05618 1.64385C3.00916 1.60773 3.01106 1.60773 2.90621 1.678C2.73654 1.79491 2.66028 2.03467 2.66028 2.46616C2.66028 2.68157 2.65456 2.74588 2.63105 2.76624C2.56115 2.82666 2.49633 2.73211 2.44612 2.49831C2.43148 2.42509 2.43148 2.34954 2.44612 2.27632C2.49887 1.97618 2.49506 1.96173 2.36987 2.00245C2.29996 2.02281 2.2898 2.03467 2.22371 2.19951C2.12937 2.40867 2.09413 2.64111 2.12203 2.87006C2.13347 3.10189 2.13156 3.13269 2.10233 3.13991C2.06166 3.1583 1.97142 3.10579 1.87038 3.00859C1.83191 2.97504 1.80071 2.9335 1.77881 2.88665C1.75691 2.8398 1.74481 2.78874 1.74329 2.73673C1.74329 2.68813 1.73185 2.65985 1.70643 2.64606C1.68101 2.63227 1.66131 2.63822 1.62064 2.70258C1.56075 2.81798 1.52372 2.94453 1.51172 3.07489C1.49972 3.20525 1.51298 3.3368 1.55074 3.46179C1.5895 3.55046 1.59141 3.58063 1.58188 3.80196C1.57425 3.93331 1.56027 4.09816 1.54883 4.16449C1.51873 4.43326 1.58671 4.70397 1.73948 4.9237C1.79794 4.98938 1.80302 4.98215 1.6969 5.03666C1.54554 5.1421 1.40631 5.26504 1.28193 5.40312C1.18831 5.60082 1.11319 5.80731 1.05761 6.01979C1.0538 6.07627 1.05761 6.07828 1.13768 6.07631C1.1637 6.0787 1.18988 6.07423 1.21378 6.06332C1.23767 6.05241 1.2585 6.03543 1.27431 6.01394C1.33785 5.94367 1.33785 5.94362 1.94092 5.84839C2.17072 5.78891 2.40897 5.77247 2.64439 5.7998C2.67744 5.83395 2.63105 5.97119 2.52556 6.13604C2.40152 6.31981 2.31047 6.52521 2.25675 6.74229C2.15611 7.09936 2.11064 7.47057 2.12203 7.8423C2.11171 7.99438 2.13339 8.14698 2.18558 8.28957C2.20787 8.36321 2.24468 8.43123 2.29368 8.48944C2.34267 8.54765 2.4028 8.5948 2.47027 8.62781C2.53648 8.67104 2.61475 8.69023 2.69269 8.68233L2.79818 8.6764V8.90039C2.80176 9.14425 2.77224 9.38742 2.71048 9.62281C2.5863 9.98798 2.43984 10.3446 2.272 10.6907C2.13284 10.9673 2.02801 11.261 1.95999 11.5648C1.94855 11.637 1.93647 12.0607 1.93266 12.5033L1.92694 13.3091L2.05976 14.0848L2.19066 14.8604L2.42642 15.3799C2.58322 15.7353 2.76304 16.0794 2.96467 16.4097L3.26652 16.9154L3.67196 17.3325C3.94521 17.6256 4.24291 17.8932 4.56162 18.1323L5.04903 18.5152L5.32165 18.6098C5.42334 18.6402 5.5224 18.6793 5.61778 18.7267C5.62922 18.7385 5.73662 18.9967 5.85736 19.3007L6.07342 19.8511L6.43818 20.2681C6.66441 20.5309 6.89636 20.8198 7.04824 21.0379C7.20609 21.2322 7.32821 21.4548 7.40855 21.6946L7.52357 22.0006L7.68371 22.0453L7.84576 22.0899V22.4446C7.84576 22.6686 7.82797 22.9924 7.79683 23.3234C7.75171 23.8166 7.65829 24.6205 7.64495 24.6369C7.64495 24.6369 7.51785 24.6652 7.36788 24.6934C6.9866 24.7656 6.90017 24.7938 6.80676 24.8727C6.76164 24.9088 6.67394 24.9731 6.61611 25.0138C6.55239 25.0497 6.49975 25.1035 6.46424 25.1689C6.45154 25.1971 6.43644 25.2241 6.41912 25.2496C6.4153 25.2496 6.36065 25.2273 6.29647 25.201C6.17245 25.1407 6.03278 25.1239 5.89866 25.1531C5.73981 25.2564 5.61213 25.4036 5.53009 25.578C5.50657 25.6607 5.49895 25.6686 5.43477 25.6805C5.38885 25.6872 5.34259 25.6912 5.29623 25.6923C5.17595 25.6985 5.05861 25.7328 4.95307 25.7928C4.91648 25.8231 4.8766 25.8488 4.83424 25.8696C4.70855 25.9505 4.60523 26.0636 4.5343 26.198C4.5343 26.2282 4.54192 26.2341 4.56925 26.2242C4.61139 26.2018 4.65742 26.1883 4.70466 26.1845C4.7519 26.1806 4.7994 26.1866 4.84441 26.202C4.99122 26.2609 5.14702 26.2922 5.30449 26.2946C5.43159 26.2946 6.02385 26.2499 6.23991 26.2223L6.33714 26.2105V26.3897C6.34775 26.6169 6.38706 26.8417 6.45407 27.0583C6.47758 27.0826 6.51762 26.9979 6.53033 26.8954C6.53984 26.7719 6.59088 26.6558 6.67458 26.5671C6.80679 26.437 6.96815 26.3429 7.14419 26.2932C7.4975 26.2001 7.8129 25.993 8.04466 25.7021C8.0758 25.6134 8.12855 25.5872 8.27852 25.5872C8.35231 25.5849 8.42543 25.6023 8.49077 25.6378C8.55086 25.6708 8.61782 25.6881 8.68586 25.6883C8.76627 25.6925 8.84598 25.706 8.92353 25.7284C8.97149 25.7451 9.02119 25.7559 9.07159 25.7606C9.08748 25.7422 9.03473 25.6115 8.99533 25.5753C8.96846 25.548 8.94556 25.5169 8.92734 25.4828C8.90192 25.4302 8.90192 25.4283 8.9839 25.3981C9.02901 25.3817 9.19043 25.3324 9.34421 25.2851C9.6486 25.1965 9.70707 25.1721 9.77125 25.0999C9.84328 25.0057 9.88603 24.8912 9.8939 24.7715V24.6828L10.054 24.8484C10.2219 25.037 10.4395 25.1708 10.68 25.2332C10.7894 25.2386 10.8943 25.2795 10.9799 25.3501C11.0053 25.3744 11.0289 25.3902 11.0308 25.3843C11.0271 25.2514 11.0094 25.1192 10.978 24.9902C10.846 24.789 10.6603 24.6316 10.4436 24.5371C10.1125 24.3637 10.0623 24.3295 10.0127 24.2205C9.98022 24.1468 9.96105 24.0675 9.95617 23.9867L9.94664 23.8514H10.0483C10.204 23.8514 10.3819 23.7489 10.3819 23.6583C10.3819 23.6018 10.2885 23.5316 10.1278 23.4665C10.0625 23.4453 10.0048 23.4047 9.96189 23.3497C9.90724 23.2774 9.90724 23.2754 9.90915 22.9851C9.90915 22.8242 9.93075 22.4433 9.95617 22.1392C10.0106 21.8171 10.0086 21.4874 9.95045 21.1659C9.91932 21.0937 9.92122 21.0694 9.98731 20.6622C10.0242 20.4264 10.0591 20.211 10.0655 20.1808C10.075 20.1341 10.122 20.1066 10.4887 19.9332C10.7168 19.8242 11.0346 19.6613 11.1966 19.5687L11.4889 19.3993L11.5747 19.0972C11.6009 18.991 11.634 18.8867 11.6739 18.7852C11.6815 18.7792 11.7419 18.8397 11.8105 18.9166L11.9331 19.0597L12.1632 18.5724L12.3913 18.0851L12.446 18.1251C12.4752 18.1474 12.5731 18.2197 12.6563 18.286C12.7618 18.3688 12.8164 18.401 12.826 18.3845C12.8392 18.3198 12.8451 18.2537 12.8438 18.1876C12.8437 18.1113 12.849 18.0351 12.8597 17.9596L12.8711 17.9031L13.0522 18.0641C13.1133 18.1243 13.1792 18.1789 13.2492 18.2276C13.2895 18.1603 13.3227 18.0887 13.3483 18.0142L13.4322 17.8027L13.5727 17.9576L13.7131 18.1146L13.7481 17.8848C13.7574 17.8001 13.7744 17.7166 13.7989 17.6352C13.8065 17.6253 13.8752 17.6536 13.9527 17.7009C13.9982 17.7356 14.0498 17.761 14.1046 17.7757C14.1182 17.7277 14.1274 17.6785 14.1319 17.6286C14.1359 17.5803 14.1437 17.5324 14.1554 17.4854C14.2197 17.5006 14.2823 17.5227 14.3422 17.5512C14.4044 17.5791 14.468 17.6032 14.5329 17.6234C14.5843 17.5743 14.6314 17.5205 14.6733 17.4625C14.7153 17.4046 14.763 17.3513 14.8157 17.3035C14.8294 17.3852 14.8339 17.4684 14.829 17.5512V17.8007L14.8875 17.821C14.9097 17.8292 14.9333 17.8326 14.9568 17.8309C14.9803 17.8292 15.0032 17.8225 15.0241 17.8112C15.0876 17.783 15.1137 17.7567 15.1798 17.63C15.231 17.5526 15.2582 17.461 15.2579 17.3673C15.2544 17.3306 15.2576 17.2936 15.2675 17.2582C15.2732 17.2582 15.3666 17.3167 15.4778 17.3896C15.542 17.4384 15.6129 17.4772 15.6882 17.5045C15.7168 17.4322 15.7417 17.3583 15.7625 17.2832L15.8261 17.0737L15.8731 17.1203C15.9201 17.1643 15.9201 17.1643 15.9493 17.1262C16.1535 16.7084 16.2792 16.2545 16.3198 15.7884L16.3897 15.3149L16.4793 15.2341C16.5448 15.1769 16.6145 15.1251 16.6878 15.0791L16.8066 15.0022L16.8123 15.0968C16.8112 15.2248 16.8034 15.3526 16.7888 15.4797C16.7468 15.7053 16.7468 15.9372 16.7888 16.1628C16.7994 16.1993 16.8123 16.2351 16.8276 16.2698C16.8499 16.2691 16.8717 16.2629 16.8911 16.2515C16.942 16.2311 16.9636 16.193 17.0589 15.9454C17.1577 15.7115 17.2139 15.4608 17.2247 15.2059C17.2578 14.9563 17.2832 14.7409 17.2832 14.7284C17.4128 14.6068 17.5533 14.4982 17.7026 14.4039C17.7261 14.396 17.728 14.3836 17.6734 14.8979C17.6187 15.4121 17.6168 15.3851 17.7102 15.3851C17.7801 15.3851 17.7941 15.3753 17.8875 15.2538C17.988 15.1149 18.0652 14.9595 18.1157 14.7941C18.2178 14.5607 18.2785 14.3101 18.2949 14.0545C18.3056 13.885 18.3376 13.7177 18.3902 13.5568C18.4354 13.4331 18.47 13.3056 18.4938 13.1758L18.5573 12.8776L18.5167 12.7325C18.4639 12.5493 18.4639 12.5513 18.5326 12.3963C18.5637 12.3241 18.6399 12.1263 18.7003 11.9569L18.8096 11.6509L18.7181 11.3711L18.6285 11.0933L18.6921 10.9869C18.7251 10.9304 18.7798 10.8299 18.8147 10.7675C18.8346 10.7254 18.8596 10.6862 18.8891 10.6506C18.9183 10.6506 18.9526 10.8181 18.9984 11.1642C19.0425 11.4708 19.0542 11.7816 19.0333 12.0909C19.0425 12.416 19.0104 12.7411 18.938 13.0576C18.891 13.2895 18.8363 13.5535 18.8109 13.6421C18.7639 13.8313 18.7798 13.8937 18.8808 13.916C18.9373 13.9278 18.9526 13.916 19.0873 13.7748C19.2316 13.6238 19.2335 13.6178 19.3917 13.229C19.4901 12.9903 19.5714 12.7445 19.6351 12.4935C19.7064 12.2448 19.7432 11.987 19.7444 11.7277C19.7459 11.5749 19.7611 11.4225 19.7895 11.2726C19.8029 11.2542 19.9223 11.0755 20.0545 10.8693L20.2979 10.4989L20.3913 10.0156L20.4847 9.53414V8.98834C20.4847 8.6639 20.4733 8.36572 20.4574 8.24684C20.4456 8.18192 20.4412 8.11585 20.4441 8.04986C20.4759 8.08474 20.5046 8.12255 20.5299 8.16282C20.6945 8.53629 20.8048 8.93289 20.8571 9.33973L20.9207 9.71276L20.8972 10.1357C20.8966 10.4057 20.8565 10.674 20.7783 10.9317C20.7339 11.1464 20.6582 11.3531 20.554 11.5445C20.3843 11.8729 20.3862 11.9595 20.5635 11.9595C20.6379 11.9595 20.6843 11.9392 20.8228 11.8531C20.9543 11.7732 21.0673 11.6645 21.1539 11.5346C21.2816 11.3772 21.3844 11.1999 21.4583 11.0092L21.6006 10.6887L21.6375 10.3039C21.6684 9.97782 21.6813 9.65021 21.6762 9.32265V8.73155L21.6019 8.38939C21.5477 8.12581 21.4661 7.86905 21.3585 7.6236C21.2642 7.38843 21.1581 7.15851 21.0408 6.93469C20.9121 6.69408 20.7462 6.47688 20.5496 6.29173C20.3296 6.03638 20.0833 5.8067 19.8149 5.60675L19.4248 5.30066L19.0435 5.13976L18.6622 4.97693L18.2529 4.91119C18.0286 4.87901 17.791 4.84097 17.7249 4.83046C17.4759 4.80048 17.2242 4.80442 16.9763 4.84225C16.6895 4.85812 16.4053 4.90614 16.1285 4.98543L15.6799 5.09839L15.3272 5.31581C15.0871 5.4582 14.8619 5.62566 14.6549 5.8156C14.1611 6.25676 13.7235 6.76098 13.3528 7.31623L13.0528 7.76157L12.6398 8.72827C12.4452 9.15499 12.2727 9.59215 12.1231 10.0378C12.0666 10.225 11.996 10.4385 11.963 10.5114C11.93 10.5843 11.8264 10.8601 11.7311 11.1234C11.6357 11.3868 11.5169 11.6836 11.4699 11.7802C11.4309 11.8759 11.3679 11.9592 11.2873 12.0212C11.2068 12.0832 11.1116 12.1218 11.0117 12.1329C10.5826 12.2152 10.1415 12.2028 9.71724 12.0968C9.37652 11.9881 9.07063 11.7861 8.83202 11.5123C8.73705 11.4307 8.66287 11.3262 8.61596 11.2082C8.58291 11.1294 8.46026 10.8536 8.33889 10.5935C8.03911 9.92041 7.78577 9.22618 7.58077 8.51614C7.41477 7.87663 7.18608 7.25631 6.89827 6.66476C6.54588 5.94577 5.98305 5.36 5.28988 4.99072C5.01972 4.80597 4.7318 4.65055 4.43071 4.52702C4.27057 4.46134 4.13649 4.39563 4.13077 4.39169C4.26859 4.37638 4.40712 4.36897 4.54573 4.3694C4.78939 4.38158 5.03327 4.35089 5.267 4.27873C5.44844 4.24299 5.62123 4.17047 5.77538 4.06532C6.01346 3.91936 6.21195 3.71353 6.35239 3.46701C6.47073 3.25437 6.53623 3.01472 6.54303 2.76952C6.52822 2.55259 6.46492 2.34215 6.35811 2.15478L6.29456 2.05825L6.27296 2.10884C6.25825 2.14392 6.25026 2.18165 6.24944 2.21988C6.24944 2.37881 6.12235 2.54031 5.79508 2.78003C5.70715 2.85583 5.60267 2.90838 5.49069 2.93307C5.41882 2.9501 5.34569 2.96084 5.27208 2.96522C5.15897 2.96522 5.14944 2.93111 5.16278 2.56661C5.17422 2.27239 5.17613 2.25463 5.23268 2.15349C5.30799 2.00595 5.43167 1.89092 5.58156 1.82904C5.75504 1.73841 5.76267 1.73058 5.75123 1.68001C5.74678 1.65698 5.73884 1.63475 5.72772 1.61427C5.55533 1.60018 5.38193 1.60702 5.21108 1.63463C5.0145 1.70204 4.82718 1.79548 4.65377 1.9125C4.5852 1.96361 4.52474 2.02538 4.47456 2.09569C4.38651 2.2288 4.27712 2.34543 4.1511 2.4405C4.11043 2.4405 4.07294 2.34597 4.03799 2.14828C4.00757 2.04443 4.00757 1.93353 4.03799 1.82969C4.06865 1.67641 4.14999 1.53899 4.26803 1.44094C4.30489 1.42058 4.32078 1.39888 4.31315 1.38049C4.30673 1.36097 4.30288 1.34062 4.30171 1.32004C4.29854 1.28129 4.19686 1.28724 4.0507 1.33584ZM17.205 7.04501C17.173 7.12782 17.1326 7.20686 17.0843 7.28079L17.0474 7.33531L16.9267 7.28672C16.6598 7.1823 16.6579 7.20004 16.9324 7.11532C17.1955 7.03125 17.2031 7.03122 17.2031 7.04501H17.205ZM18.5249 7.26828C18.6918 7.34573 18.8416 7.45746 18.9653 7.59666C19.1034 7.74199 19.2287 7.89982 19.3396 8.06822L19.5226 8.34209L19.5862 8.70662L19.6446 9.07107L19.6059 9.40739C19.5843 9.59456 19.5608 9.79812 19.5531 9.86051C19.5537 9.90101 19.545 9.94106 19.5277 9.9774C19.4677 9.8548 19.4157 9.72826 19.372 9.59852L19.2297 9.22147L18.8884 8.76178L18.5472 8.30208L18.5688 8.09845C18.6004 7.91255 18.5871 7.72144 18.53 7.54215C18.4856 7.45756 18.4268 7.38194 18.3565 7.31887C18.1271 7.08835 18.1697 7.08117 18.523 7.26901L18.5249 7.26828ZM9.03728 21.051C9.09574 21.1252 9.15992 21.206 9.18344 21.2283C9.20695 21.2507 9.23618 21.3373 9.27494 21.5508C9.32812 21.8762 9.35216 22.206 9.34675 22.5359C9.35628 22.9228 9.3798 23.4586 9.39759 23.7246C9.43254 24.2789 9.42682 24.3209 9.3118 24.4155C9.14213 24.5548 8.94704 24.5968 8.46217 24.6027L8.15015 24.6066L8.15587 24.4976C8.1635 24.3328 8.17748 24.3184 8.31792 24.3184C8.37208 24.3261 8.42715 24.314 8.47361 24.2842C8.48855 24.269 8.49907 24.2498 8.50397 24.2288C8.50887 24.2078 8.50796 24.1857 8.50134 24.1652C8.49471 24.1446 8.48265 24.1264 8.46651 24.1126C8.45038 24.0988 8.43082 24.09 8.41006 24.0871C8.3627 24.0631 8.32081 24.029 8.28718 23.987C8.25355 23.945 8.22893 23.8961 8.21497 23.8435C8.21497 23.8172 8.25755 23.5717 8.31029 23.2978C8.36304 23.0239 8.43739 22.6312 8.47043 22.4256C8.48822 22.2922 8.51627 22.1603 8.55431 22.0315C8.56766 22.0197 8.64964 21.9245 8.73733 21.8181L8.89747 21.621V21.4818C8.89747 21.3446 8.91908 20.9118 8.9267 20.9118C8.93433 20.9118 8.97881 20.9761 9.03728 21.051ZM8.55559 25.1669C8.50856 25.2391 8.49204 25.2477 8.42468 25.2477C8.32836 25.2439 8.23483 25.2132 8.15397 25.159C8.11329 25.0933 8.14062 25.0887 8.37257 25.0887H8.60642L8.55559 25.1669ZM7.58267 25.1807C7.57339 25.2294 7.55249 25.275 7.52186 25.3133C7.49124 25.3516 7.45186 25.3814 7.40728 25.4C7.32912 25.4302 7.29607 25.4302 7.08954 25.4079C6.92476 25.4002 6.76218 25.3656 6.60785 25.3054C6.57671 25.2772 6.69364 25.2614 6.75211 25.2871C6.79958 25.3014 6.84971 25.3038 6.89825 25.2939C6.9468 25.2841 6.99236 25.2624 7.03108 25.2306C7.18825 25.1596 7.35844 25.1247 7.52993 25.1282C7.59284 25.1262 7.59665 25.1288 7.58331 25.1807H7.58267ZM5.84782 25.62C5.94099 25.6393 6.03562 25.6501 6.13061 25.6522C6.20243 25.6503 6.27424 25.6564 6.34477 25.6706C6.38989 25.6844 6.38734 25.687 6.31744 25.7008C6.11194 25.7118 5.90591 25.7044 5.70167 25.6785C5.64511 25.6667 5.6432 25.6621 5.67434 25.6279C5.71374 25.5839 5.70166 25.5839 5.84782 25.62V25.62Z"
        stroke="#FEB25B" stroke-width="0.7" />
</svg>