<svg width="88" height="88" viewBox="0 0 88 88" fill="none" xmlns="http://www.w3.org/2000/svg">
<g filter="url(#filter0_d_547_1088)">
<rect x="4" width="80" height="80" rx="24" fill="url(#paint0_linear_547_1088)"/>
</g>
<path d="M29.9376 50.288C28.2576 50.288 26.7856 49.92 25.5216 49.184C24.2736 48.448 23.2896 47.432 22.5696 46.136C21.8656 44.824 21.5136 43.312 21.5136 41.6C21.5136 39.888 21.8656 38.384 22.5696 37.088C23.2896 35.776 24.2736 34.752 25.5216 34.016C26.7856 33.28 28.2576 32.912 29.9376 32.912C31.6016 32.912 33.0656 33.28 34.3296 34.016C35.5936 34.752 36.5776 35.776 37.2816 37.088C37.9856 38.384 38.3376 39.888 38.3376 41.6C38.3376 43.312 37.9856 44.824 37.2816 46.136C36.5776 47.432 35.5936 48.448 34.3296 49.184C33.0656 49.92 31.6016 50.288 29.9376 50.288ZM29.9376 47.528C31.5376 47.528 32.8096 47 33.7536 45.944C34.7136 44.888 35.1936 43.44 35.1936 41.6C35.1936 39.76 34.7136 38.312 33.7536 37.256C32.8096 36.2 31.5376 35.672 29.9376 35.672C28.3376 35.672 27.0576 36.2 26.0976 37.256C25.1376 38.312 24.6576 39.76 24.6576 41.6C24.6576 43.44 25.1376 44.888 26.0976 45.944C27.0576 47 28.3376 47.528 29.9376 47.528ZM44.3526 50V35.672H39.4566V33.2H52.3446V35.672H47.4246V50H44.3526ZM54.6203 50V33.2H60.8363C62.1803 33.2 63.2923 33.424 64.1723 33.872C65.0523 34.32 65.7083 34.936 66.1403 35.72C66.5723 36.504 66.7883 37.384 66.7883 38.36C66.7883 39.288 66.5803 40.144 66.1643 40.928C65.7483 41.696 65.1003 42.32 64.2203 42.8C63.3403 43.264 62.2123 43.496 60.8363 43.496H57.6923V50H54.6203ZM57.6923 41H60.6443C61.7163 41 62.4843 40.768 62.9483 40.304C63.4283 39.824 63.6683 39.176 63.6683 38.36C63.6683 37.528 63.4283 36.88 62.9483 36.416C62.4843 35.936 61.7163 35.696 60.6443 35.696H57.6923V41Z" fill="white"/>
<defs>
<filter id="filter0_d_547_1088" x="0" y="0" width="88" height="88" filterUnits="userSpaceOnUse" color-interpolation-filters="sRGB">
<feFlood flood-opacity="0" result="BackgroundImageFix"/>
<feColorMatrix in="SourceAlpha" type="matrix" values="0 0 0 0 0 0 0 0 0 0 0 0 0 0 0 0 0 0 127 0" result="hardAlpha"/>
<feOffset dy="4"/>
<feGaussianBlur stdDeviation="2"/>
<feComposite in2="hardAlpha" operator="out"/>
<feColorMatrix type="matrix" values="0 0 0 0 1 0 0 0 0 0.596078 0 0 0 0 0.262745 0 0 0 0.13 0"/>
<feBlend mode="normal" in2="BackgroundImageFix" result="effect1_dropShadow_547_1088"/>
<feBlend mode="normal" in="SourceGraphic" in2="effect1_dropShadow_547_1088" result="shape"/>
</filter>
<linearGradient id="paint0_linear_547_1088" x1="77.1429" y1="12.5714" x2="4" y2="80" gradientUnits="userSpaceOnUse">
<stop stop-color="#FF9843"/>
<stop offset="1" stop-color="#FFBB84"/>
</linearGradient>
</defs>
</svg>
