<svg width="35" height="34" viewBox="0 0 35 34" fill="none" xmlns="http://www.w3.org/2000/svg">
    <path
        d="M17.7109 6.40195L13.1334 10.9463L18.6231 16.4361L16.8651 18.1941L11.3753 12.7044L8.43972 15.64L13.9295 21.1298L12.1714 22.8878L6.68167 17.398L3.3646 20.7151C2.8375 21.2257 2.49459 21.8966 2.38955 22.6229C2.28451 23.3492 2.42327 24.0898 2.78411 24.7288L4.44264 27.8634L0.710938 31.6615L3.04947 34L6.84752 30.2683L9.98216 31.9268C10.4877 32.2134 11.0596 32.3621 11.6407 32.358C12.0784 32.3584 12.5118 32.2721 12.9161 32.1042C13.3203 31.9362 13.6872 31.6899 13.9958 31.3795L28.309 17L17.7109 6.40195ZM30.6475 12.3561L27.6787 9.37073L30.0339 7.03219L32.3724 9.37073L34.7109 7.03219L27.6787 0L25.3402 2.33854L27.6787 4.69366L25.3402 7.03219L22.3548 4.06341L19.469 1.16098L17.1304 3.5161L18.8387 5.22439V5.24098L29.47 15.8722H29.4865L31.1948 17.5805L33.55 15.242L30.6641 12.3561H30.6475Z"
        fill="#F3F4F6" />
</svg>