<svg width="24" height="32" viewBox="0 0 24 32" fill="none" xmlns="http://www.w3.org/2000/svg">
<path d="M16.8236 12.4967V6.42739C16.8236 5.07187 16.2851 3.77187 15.3266 2.81338C14.3681 1.85488 13.0681 1.31641 11.7126 1.31641C10.3571 1.31641 9.05709 1.85488 8.0986 2.81338C7.1401 3.77187 6.60162 5.07187 6.60162 6.42739V12.4967" stroke="#949CAD" stroke-width="2.62851" stroke-linecap="round" stroke-linejoin="round"/>
<path d="M18.868 12.4966H4.55725C2.86362 12.4966 1.49066 13.8695 1.49066 15.5632V26.8073C1.49066 28.501 2.86362 29.8739 4.55725 29.8739H18.868C20.5616 29.8739 21.9346 28.501 21.9346 26.8073V15.5632C21.9346 13.8695 20.5616 12.4966 18.868 12.4966Z" stroke="#949CAD" stroke-width="2.62851" stroke-linecap="round" stroke-linejoin="round"/>
</svg>
