<svg width="31" height="31" viewBox="0 0 31 31" fill="none" xmlns="http://www.w3.org/2000/svg">
<path d="M4.42377 14.0371V19.6544C4.42377 25.2718 6.6757 27.5237 12.293 27.5237H19.0363C24.6537 27.5237 26.9056 25.2718 26.9056 19.6544V14.0371" stroke="#333647" stroke-width="1.73226" stroke-linecap="round" stroke-linejoin="round"/>
<path d="M15.671 15.0129C17.9604 15.0129 19.6494 13.1488 19.4242 10.8594L18.5985 2.5022H12.7559L11.9177 10.8594C11.6925 13.1488 13.3815 15.0129 15.671 15.0129Z" stroke="#333647" stroke-width="1.73226" stroke-linecap="round" stroke-linejoin="round"/>
<path d="M23.5652 15.0129C26.0924 15.0129 27.944 12.9612 27.6938 10.4465L27.3435 7.00607C26.8931 3.75327 25.642 2.5022 22.3642 2.5022H18.5484L19.4242 11.2722C19.6369 13.3365 21.501 15.0129 23.5652 15.0129ZM7.71413 15.0129C9.7784 15.0129 11.6425 13.3365 11.8427 11.2722L12.1179 8.50736L12.7184 2.5022H8.90265C5.62483 2.5022 4.37376 3.75327 3.92337 7.00607L3.58558 10.4465C3.33536 12.9612 5.18695 15.0129 7.71413 15.0129ZM15.671 21.2683C13.5817 21.2683 12.5433 22.3067 12.5433 24.396V27.5237H18.7987V24.396C18.7987 22.3067 17.7603 21.2683 15.671 21.2683Z" stroke="#333647" stroke-width="1.73226" stroke-linecap="round" stroke-linejoin="round"/>
</svg>
