<svg width="31" height="31" viewBox="0 0 31 31" fill="none" xmlns="http://www.w3.org/2000/svg">
<path d="M20.3333 28.462H10.3247C5.7583 28.462 3.13104 25.8347 3.13104 21.2683V8.75753C3.13104 4.1911 5.7583 1.56384 10.3247 1.56384H20.3333C24.8998 1.56384 27.527 4.1911 27.527 8.75753V21.2683C27.527 25.8347 24.8998 28.462 20.3333 28.462ZM10.3247 3.44046C6.74665 3.44046 5.00766 5.17945 5.00766 8.75753V21.2683C5.00766 24.8464 6.74665 26.5853 10.3247 26.5853H20.3333C23.9114 26.5853 25.6504 24.8464 25.6504 21.2683V8.75753C25.6504 5.17945 23.9114 3.44046 20.3333 3.44046H10.3247Z" fill="#333647"/>
<path d="M23.461 11.5724H20.9589C19.0573 11.5724 17.5184 10.0336 17.5184 8.13199V5.62983C17.5184 5.11689 17.9438 4.69153 18.4567 4.69153C18.9697 4.69153 19.395 5.11689 19.395 5.62983V8.13199C19.395 8.99523 20.0956 9.69583 20.9589 9.69583H23.461C23.974 9.69583 24.3993 10.1212 24.3993 10.6341C24.3993 11.1471 23.974 11.5724 23.461 11.5724ZM15.3291 17.2023H10.3248C9.81181 17.2023 9.38644 16.7769 9.38644 16.264C9.38644 15.751 9.81181 15.3257 10.3248 15.3257H15.3291C15.842 15.3257 16.2674 15.751 16.2674 16.264C16.2674 16.7769 15.842 17.2023 15.3291 17.2023ZM20.3334 22.2066H10.3248C9.81181 22.2066 9.38644 21.7812 9.38644 21.2683C9.38644 20.7553 9.81181 20.33 10.3248 20.33H20.3334C20.8463 20.33 21.2717 20.7553 21.2717 21.2683C21.2717 21.7812 20.8463 22.2066 20.3334 22.2066Z" fill="#333647"/>
</svg>
