<svg width="31" height="31" viewBox="0 0 31 31" fill="none" xmlns="http://www.w3.org/2000/svg">
<path d="M26.0974 10.4715L17.4275 3.54057C16.0888 2.46465 13.9245 2.46465 12.5983 3.52806L3.92839 10.4715C2.95255 11.2472 2.32702 12.8861 2.5397 14.1122L4.20363 24.0707C4.50389 25.8472 6.20535 27.286 8.0069 27.286H22.0189C23.808 27.286 25.5219 25.8347 25.8222 24.0707L27.4861 14.1122C27.6863 12.8861 27.0608 11.2472 26.0974 10.4715ZM15.0129 19.3917C14.1834 19.3917 13.3879 19.0622 12.8013 18.4756C12.2148 17.8891 11.8852 17.0935 11.8852 16.264C11.8852 15.4345 12.2148 14.639 12.8013 14.0524C13.3879 13.4658 14.1834 13.1363 15.0129 13.1363C15.8424 13.1363 16.638 13.4658 17.2245 14.0524C17.8111 14.639 18.1406 15.4345 18.1406 16.264C18.1406 17.0935 17.8111 17.8891 17.2245 18.4756C16.638 19.0622 15.8424 19.3917 15.0129 19.3917Z" fill="#333647"/>
</svg>
