<svg width="25" height="31" viewBox="0 0 25 31" fill="none" xmlns="http://www.w3.org/2000/svg">
<path d="M16.6127 23.7277V24.7728C16.6127 25.8814 16.1844 26.9447 15.4221 27.7286C14.6598 28.5125 13.6258 28.9529 12.5477 28.9529C11.4697 28.9529 10.4357 28.5125 9.6734 27.7286C8.91108 26.9447 8.48281 25.8814 8.48281 24.7728V23.7277M23.4519 21.6004C21.8209 19.5476 20.6693 18.5026 20.6693 12.843C20.6693 7.66031 18.0957 5.81386 15.9775 4.91709C15.6962 4.79822 15.4313 4.5252 15.3456 4.22802C14.974 2.9276 13.9324 1.78198 12.5477 1.78198C11.1631 1.78198 10.1209 2.92826 9.7531 4.22933C9.66736 4.52977 9.4025 4.79822 9.12113 4.91709C7.00038 5.81517 4.42931 7.65509 4.42931 12.843C4.42614 18.5026 3.27462 19.5476 1.64357 21.6004C0.967774 22.4508 1.55973 23.7277 2.74173 23.7277H22.3601C23.5358 23.7277 24.1239 22.4469 23.4519 21.6004Z" stroke="#949CAD" stroke-width="2.39744" stroke-linecap="round" stroke-linejoin="round"/>
</svg>
