<svg width="88" height="88" viewBox="0 0 88 88" fill="none" xmlns="http://www.w3.org/2000/svg">
<g filter="url(#filter0_d_548_3061)">
<rect x="4" width="80" height="80" rx="24" fill="url(#paint0_linear_548_3061)"/>
</g>
<path d="M29.4805 36.0703C30.332 36.0703 31.1797 36.3008 32.0234 36.7617C32.875 37.2148 33.5234 37.8672 33.9688 38.7188C34.4219 39.5625 34.6484 40.3984 34.6484 41.2266C34.6484 42.6562 34.1445 43.875 33.1367 44.8828C32.1289 45.8906 30.9102 46.3945 29.4805 46.3945C28.0586 46.3945 26.8438 45.8906 25.8359 44.8828C24.8281 43.875 24.3242 42.6562 24.3242 41.2266C24.3242 40.3828 24.5391 39.5469 24.9688 38.7188C25.4062 37.8828 26.043 37.2344 26.8789 36.7734C27.7227 36.3047 28.5898 36.0703 29.4805 36.0703ZM43.9883 36.0703C44.8398 36.0703 45.6875 36.3008 46.5312 36.7617C47.3828 37.2148 48.0312 37.8672 48.4766 38.7188C48.9297 39.5625 49.1562 40.3984 49.1562 41.2266C49.1562 42.6562 48.6523 43.875 47.6445 44.8828C46.6367 45.8906 45.418 46.3945 43.9883 46.3945C42.5664 46.3945 41.3516 45.8906 40.3438 44.8828C39.3359 43.875 38.832 42.6562 38.832 41.2266C38.832 40.3828 39.0469 39.5469 39.4766 38.7188C39.9141 37.8828 40.5508 37.2344 41.3867 36.7734C42.2305 36.3047 43.0977 36.0703 43.9883 36.0703ZM58.4961 36.0703C59.3477 36.0703 60.1953 36.3008 61.0391 36.7617C61.8906 37.2148 62.5391 37.8672 62.9844 38.7188C63.4375 39.5625 63.6641 40.3984 63.6641 41.2266C63.6641 42.6562 63.1602 43.875 62.1523 44.8828C61.1445 45.8906 59.9258 46.3945 58.4961 46.3945C57.0742 46.3945 55.8594 45.8906 54.8516 44.8828C53.8438 43.875 53.3398 42.6562 53.3398 41.2266C53.3398 40.3828 53.5547 39.5469 53.9844 38.7188C54.4219 37.8828 55.0586 37.2344 55.8945 36.7734C56.7383 36.3047 57.6055 36.0703 58.4961 36.0703Z" fill="white"/>
<defs>
<filter id="filter0_d_548_3061" x="0" y="0" width="88" height="88" filterUnits="userSpaceOnUse" color-interpolation-filters="sRGB">
<feFlood flood-opacity="0" result="BackgroundImageFix"/>
<feColorMatrix in="SourceAlpha" type="matrix" values="0 0 0 0 0 0 0 0 0 0 0 0 0 0 0 0 0 0 127 0" result="hardAlpha"/>
<feOffset dy="4"/>
<feGaussianBlur stdDeviation="2"/>
<feComposite in2="hardAlpha" operator="out"/>
<feColorMatrix type="matrix" values="0 0 0 0 1 0 0 0 0 0.596078 0 0 0 0 0.262745 0 0 0 0.13 0"/>
<feBlend mode="normal" in2="BackgroundImageFix" result="effect1_dropShadow_548_3061"/>
<feBlend mode="normal" in="SourceGraphic" in2="effect1_dropShadow_548_3061" result="shape"/>
</filter>
<linearGradient id="paint0_linear_548_3061" x1="77.1429" y1="12.5714" x2="4" y2="80" gradientUnits="userSpaceOnUse">
<stop stop-color="#FF9843"/>
<stop offset="1" stop-color="#FFBB84"/>
</linearGradient>
</defs>
</svg>
