<svg width="88" height="88" viewBox="0 0 88 88" fill="none" xmlns="http://www.w3.org/2000/svg">
<g filter="url(#filter0_d_548_3067)">
<rect x="4" width="80" height="80" rx="24" fill="url(#paint0_linear_548_3067)"/>
</g>
<path d="M53.0385 54.9997C51.7311 54.9997 49.8946 54.527 47.1445 52.9908C43.8002 51.1158 41.2136 49.3847 37.8874 46.0679C34.6805 42.8637 33.1199 40.7891 30.9358 36.8154C28.4683 32.3287 28.8889 29.9769 29.3591 28.9717C29.9191 27.7704 30.7456 27.0519 31.8139 26.3387C32.4207 25.9412 33.0628 25.6005 33.7321 25.3208C33.7991 25.292 33.8614 25.2646 33.917 25.2398C34.2485 25.0905 34.7508 24.8648 35.3871 25.1059C35.8118 25.2652 36.1909 25.5914 36.7843 26.1773C38.0013 27.3773 39.6644 30.0499 40.2779 31.3624C40.6898 32.247 40.9624 32.8309 40.9631 33.4859C40.9631 34.2526 40.5773 34.8439 40.1091 35.4821C40.0213 35.602 39.9343 35.7165 39.8499 35.8276C39.3402 36.4973 39.2283 36.6908 39.302 37.0364C39.4514 37.7308 40.5652 39.798 42.3957 41.6241C44.2262 43.4503 46.2342 44.4936 46.9315 44.6423C47.2918 44.7193 47.4894 44.6027 48.1806 44.0751C48.2797 43.9994 48.3815 43.921 48.488 43.8427C49.202 43.3117 49.766 42.936 50.5148 42.936H50.5188C51.1705 42.936 51.7284 43.2186 52.6527 43.6846C53.8583 44.2927 56.6118 45.934 57.8194 47.1521C58.4068 47.7441 58.7343 48.1218 58.8944 48.5456C59.1355 49.1838 58.9085 49.6841 58.7604 50.0189C58.7357 50.0745 58.7082 50.1354 58.6794 50.203C58.3975 50.871 58.0547 51.5117 57.6553 52.1169C56.9433 53.1816 56.222 54.006 55.0177 54.5665C54.3993 54.8589 53.7226 55.0071 53.0385 54.9997Z" fill="white"/>
<defs>
<filter id="filter0_d_548_3067" x="0" y="0" width="88" height="88" filterUnits="userSpaceOnUse" color-interpolation-filters="sRGB">
<feFlood flood-opacity="0" result="BackgroundImageFix"/>
<feColorMatrix in="SourceAlpha" type="matrix" values="0 0 0 0 0 0 0 0 0 0 0 0 0 0 0 0 0 0 127 0" result="hardAlpha"/>
<feOffset dy="4"/>
<feGaussianBlur stdDeviation="2"/>
<feComposite in2="hardAlpha" operator="out"/>
<feColorMatrix type="matrix" values="0 0 0 0 1 0 0 0 0 0.596078 0 0 0 0 0.262745 0 0 0 0.13 0"/>
<feBlend mode="normal" in2="BackgroundImageFix" result="effect1_dropShadow_548_3067"/>
<feBlend mode="normal" in="SourceGraphic" in2="effect1_dropShadow_548_3067" result="shape"/>
</filter>
<linearGradient id="paint0_linear_548_3067" x1="77.1429" y1="12.5714" x2="4" y2="80" gradientUnits="userSpaceOnUse">
<stop stop-color="#FF9843"/>
<stop offset="1" stop-color="#FFBB84"/>
</linearGradient>
</defs>
</svg>
