<svg width="31" height="31" viewBox="0 0 31 31" fill="none" xmlns="http://www.w3.org/2000/svg">
<path d="M15.9871 19.7045C13.3974 19.7045 11.2956 17.6027 11.2956 15.0129C11.2956 12.4232 13.3974 10.3214 15.9871 10.3214C18.5768 10.3214 20.6786 12.4232 20.6786 15.0129C20.6786 17.6027 18.5768 19.7045 15.9871 19.7045ZM15.9871 12.198C14.4358 12.198 13.1722 13.4616 13.1722 15.0129C13.1722 16.5643 14.4358 17.8279 15.9871 17.8279C17.5384 17.8279 18.802 16.5643 18.802 15.0129C18.802 13.4616 17.5384 12.198 15.9871 12.198Z" fill="#333647"/>
<path d="M20.0031 27.7615C19.7403 27.7615 19.4776 27.7239 19.2149 27.6614C18.4392 27.4487 17.7887 26.9608 17.3758 26.2727L17.2257 26.0225C16.4875 24.7464 15.4742 24.7464 14.736 26.0225L14.5984 26.2602C14.1856 26.9608 13.535 27.4612 12.7593 27.6614C11.9712 27.8741 11.158 27.7615 10.4699 27.3486L8.31802 26.1101C7.93992 25.8934 7.60824 25.6044 7.34194 25.2594C7.07565 24.9145 6.87997 24.5204 6.7661 24.0998C6.65222 23.6792 6.62239 23.2402 6.67831 22.808C6.73423 22.3759 6.87479 21.959 7.09197 21.5812C7.45478 20.9431 7.55487 20.3676 7.34218 20.0048C7.1295 19.642 6.59154 19.4293 5.8534 19.4293C4.02684 19.4293 2.53806 17.9405 2.53806 16.114V13.9121C2.53806 12.0855 4.02684 10.5967 5.8534 10.5967C6.59154 10.5967 7.1295 10.384 7.34218 10.0212C7.55487 9.65842 7.46729 9.08292 7.09197 8.44488C6.65409 7.68172 6.5415 6.78095 6.76669 5.93021C6.99188 5.06697 7.54236 4.35386 8.31802 3.91598L10.4824 2.67742C11.8961 1.8392 13.7602 2.32712 14.6109 3.76585L14.7611 4.01607C15.4992 5.29217 16.5126 5.29217 17.2507 4.01607L17.3883 3.77837C18.239 2.32712 20.1032 1.8392 21.5294 2.68993L23.6812 3.92849C24.0593 4.14514 24.391 4.4342 24.6573 4.77914C24.9236 5.12408 25.1193 5.51813 25.2332 5.93876C25.347 6.35939 25.3769 6.79835 25.3209 7.23052C25.265 7.66268 25.1245 8.07959 24.9073 8.45739C24.5445 9.09544 24.4444 9.67093 24.6571 10.0337C24.8697 10.3966 25.4077 10.6092 26.1458 10.6092C27.9724 10.6092 29.4612 12.098 29.4612 13.9246V16.1265C29.4612 17.953 27.9724 19.4418 26.1458 19.4418C25.4077 19.4418 24.8697 19.6545 24.6571 20.0173C24.4444 20.3801 24.532 20.9556 24.9073 21.5937C25.3452 22.3568 25.4703 23.2576 25.2326 24.1083C25.1238 24.5316 24.9302 24.9284 24.6636 25.2746C24.3969 25.6209 24.0627 25.9093 23.6812 26.1226L21.5169 27.3611C21.0415 27.6239 20.5285 27.7615 20.0031 27.7615ZM15.9871 23.1325C17.1006 23.1325 18.139 23.8331 18.8521 25.0717L18.9897 25.3094C19.1398 25.5721 19.39 25.7598 19.6903 25.8348C19.9906 25.9099 20.2908 25.8724 20.541 25.7222L22.7054 24.4711C23.0357 24.2806 23.2775 23.9674 23.3782 23.5997C23.4789 23.2319 23.4305 22.8392 23.2434 22.507C22.5302 21.2809 22.4427 20.0173 22.9931 19.054C23.5436 18.0907 24.6821 17.5402 26.1083 17.5402C26.909 17.5402 27.5471 16.9021 27.5471 16.1015V13.8996C27.5471 13.1114 26.909 12.4608 26.1083 12.4608C24.6821 12.4608 23.5436 11.9104 22.9931 10.947C22.4427 9.9837 22.5302 8.72011 23.2434 7.49406C23.431 7.16878 23.4811 6.78095 23.381 6.40562C23.2809 6.0303 23.0432 5.73004 22.7179 5.52987L20.5535 4.29131C20.423 4.21474 20.2786 4.16469 20.1286 4.144C19.9787 4.12331 19.8261 4.13241 19.6797 4.17076C19.5333 4.2091 19.3959 4.27596 19.2753 4.36749C19.1548 4.45902 19.0535 4.57342 18.9772 4.70416L18.8396 4.94187C18.1265 6.18043 17.0881 6.88103 15.9746 6.88103C14.8611 6.88103 13.8228 6.18043 13.1096 4.94187L12.972 4.69165C12.8166 4.43597 12.5674 4.25107 12.2777 4.1763C11.988 4.10152 11.6805 4.14279 11.4207 4.29131L9.25633 5.54238C8.92602 5.73291 8.68423 6.04609 8.5835 6.41387C8.48277 6.78165 8.53124 7.17432 8.71837 7.50657C9.43148 8.73262 9.51906 9.99621 8.96858 10.9595C8.41811 11.9229 7.27963 12.4733 5.8534 12.4733C5.05272 12.4733 4.41467 13.1114 4.41467 13.9121V16.114C4.41467 16.9021 5.05272 17.5527 5.8534 17.5527C7.27963 17.5527 8.41811 18.1032 8.96858 19.0665C9.51906 20.0298 9.43148 21.2934 8.71837 22.5195C8.53071 22.8448 8.48066 23.2326 8.58075 23.6079C8.68083 23.9832 8.91854 24.2835 9.24382 24.4837L11.4082 25.7222C11.6709 25.8849 11.9837 25.9224 12.2714 25.8473C12.5717 25.7723 12.8219 25.5721 12.9845 25.3094L13.1222 25.0717C13.8353 23.8456 14.8737 23.1325 15.9871 23.1325Z" fill="#333647"/>
</svg>
