<svg width="26" height="27" viewBox="0 0 26 27" fill="none" xmlns="http://www.w3.org/2000/svg">
    <path opacity="0.5"
        d="M25.9813 22.0539C25.8059 21.1382 24.1776 20.6615 22.5674 20.6615H22.4985V17.1507C22.4985 16.1269 20.7716 15.5928 19.0683 15.5928C17.365 15.5928 15.6381 16.1294 15.6381 17.1507V22.688C15.6381 23.7118 17.365 24.2459 19.0683 24.2459H19.1372V24.9869C19.1372 26.0106 20.8641 26.5447 22.5674 26.5447C24.2707 26.5447 26 26.0088 26 24.9875V22.0539H25.9813ZM22.5674 25.9384C20.8327 25.9384 19.7255 25.3746 19.7255 24.985C19.7255 24.8794 19.8078 24.7627 19.9589 24.6466C20.7823 25.0088 21.673 25.1834 22.5692 25.1585C23.4654 25.1832 24.356 25.0085 25.1795 24.6466C25.3307 24.7633 25.4129 24.8794 25.4129 24.985C25.4111 25.3752 24.3021 25.9384 22.5674 25.9384ZM16.2216 22.688C16.2216 22.5825 16.3038 22.4658 16.455 22.3497C17.2785 22.7115 18.1691 22.8862 19.0653 22.8616H19.1342V23.6389C19.1106 23.6389 19.0888 23.6389 19.0653 23.6389C17.3305 23.6389 16.2216 23.0752 16.2216 22.688ZM24.8566 24.1292C24.7215 24.1938 24.5823 24.2491 24.44 24.2947C23.2145 24.6415 21.9197 24.6415 20.6942 24.2947C20.5635 24.2532 20.4351 24.2044 20.3096 24.1483C20.2963 24.1428 20.2885 24.1372 20.2752 24.1323C20.1629 24.0808 20.0563 24.0172 19.9571 23.9427C19.9384 23.9267 19.9202 23.9131 19.9015 23.8964C19.8547 23.8636 19.8148 23.8215 19.7843 23.7726C19.7537 23.7236 19.7331 23.669 19.7237 23.6118V23.6037C19.7237 23.4982 19.806 23.3815 19.9571 23.2654C20.1372 23.3563 20.3245 23.4314 20.517 23.4901C20.6494 23.5309 20.7879 23.5685 20.9306 23.6013C20.9911 23.6149 21.0473 23.6254 21.106 23.6389C21.2942 23.6768 21.4879 23.7067 21.687 23.7285C21.7801 23.7396 21.8727 23.7476 21.9682 23.7556C22.1671 23.7717 22.3685 23.7772 22.5728 23.7772C22.7772 23.7772 22.9761 23.7692 23.1775 23.7556C23.5254 23.7299 23.8711 23.6792 24.212 23.6037C24.5488 23.5318 24.8757 23.4181 25.1855 23.2654C25.3367 23.3821 25.4189 23.4982 25.4189 23.6037C25.4189 23.7093 25.3367 23.826 25.1855 23.9421C25.0812 24.0138 24.9712 24.0764 24.8566 24.1292ZM16.7761 21.8329C16.6637 21.7797 16.5562 21.7162 16.455 21.6433C16.3038 21.5266 16.2216 21.4105 16.2216 21.3049C16.2216 21.1993 16.3038 21.0826 16.455 20.9666C16.7654 21.1178 17.0922 21.2313 17.4285 21.3049C17.7694 21.3804 18.1151 21.4311 18.463 21.4568C18.662 21.4704 18.8633 21.4784 19.0677 21.4784C19.2164 21.4784 19.37 21.4784 19.5157 21.4649C19.4246 21.5439 19.3451 21.636 19.2799 21.7384C19.187 21.8804 19.1371 22.0473 19.1366 22.2182V22.2534C19.113 22.2534 19.0913 22.2534 19.0677 22.2534C18.4337 22.2618 17.8021 22.1742 17.1933 21.9934C17.0509 21.9494 16.9115 21.8958 16.7761 21.8329ZM16.2216 19.9187C16.234 19.8484 16.2613 19.7816 16.3016 19.7232C16.3419 19.6647 16.3943 19.616 16.455 19.5804C16.7653 19.732 17.092 19.8455 17.4285 19.9187C17.7694 19.9942 18.1151 20.0449 18.463 20.0706C18.662 20.0867 18.8633 20.0922 19.0677 20.0922C19.2721 20.0922 19.471 20.0842 19.6723 20.0706C20.0203 20.0449 20.366 19.9942 20.7069 19.9187C21.0436 19.8468 21.3706 19.7331 21.6804 19.5804C21.8315 19.6971 21.9162 19.8132 21.9162 19.9187C21.9162 20.0243 21.834 20.141 21.6828 20.2571C21.5836 20.3316 21.477 20.3951 21.3647 20.4467C21.2292 20.5101 21.0901 20.5654 20.9481 20.6121C20.3396 20.7942 19.7078 20.8819 19.0737 20.8721C18.4398 20.8805 17.8081 20.7929 17.1993 20.6121C17.057 20.5665 16.9178 20.5113 16.7827 20.4467C16.67 20.3941 16.5625 20.3306 16.4616 20.2571C16.3038 20.141 16.2216 20.0249 16.2216 19.9187ZM16.2216 18.5344C16.234 18.464 16.2613 18.3973 16.3016 18.3388C16.3419 18.2804 16.3943 18.2316 16.455 18.196C16.7654 18.3472 17.0922 18.4608 17.4285 18.5344C17.77 18.6113 18.1166 18.6621 18.4655 18.6863C18.6644 18.6999 18.8633 18.7079 19.0653 18.7079C19.2672 18.7079 19.4655 18.6999 19.6651 18.6863C20.0138 18.6606 20.3603 18.6098 20.7021 18.5344C21.0388 18.4624 21.3657 18.3488 21.6755 18.196C21.8267 18.3127 21.9114 18.4288 21.9114 18.5344C21.9114 18.64 21.8291 18.7567 21.6755 18.8728C21.5764 18.9473 21.4698 19.0108 21.3575 19.0623C21.2219 19.1258 21.0828 19.181 20.9409 19.2278C19.7154 19.5746 18.4206 19.5746 17.1951 19.2278C17.0526 19.1827 16.9134 19.1274 16.7785 19.0623C16.6667 19.0098 16.5602 18.9463 16.4604 18.8728C16.3038 18.7573 16.2216 18.6406 16.2216 18.535V18.5344ZM14.3381 21.9131L13.2189 20.7968C13.0686 20.6456 12.866 20.5609 12.6551 20.5609C12.4441 20.5609 12.2416 20.6456 12.0912 20.7968L9.49123 23.3839L6.89123 20.7968C6.7409 20.6456 6.53838 20.5609 6.3274 20.5609C6.11641 20.5609 5.91389 20.6456 5.76356 20.7968L3.26514 23.2895L1.62291 21.6532V3.87894C1.62162 3.50346 1.766 3.14273 2.02446 2.87567C2.28293 2.6086 2.63444 2.45694 3.00212 2.45384C3.00756 2.45384 3.01301 2.45384 3.02087 2.45384C3.02873 2.45384 3.03659 2.45384 3.04445 2.45384C3.23315 2.44525 3.42159 2.47583 3.59839 2.54375C3.77518 2.61166 3.93665 2.71548 4.07303 2.84894C4.2094 2.9824 4.31786 3.14272 4.39183 3.3202C4.46579 3.49769 4.50374 3.68865 4.50337 3.88154C4.50301 4.07443 4.46433 4.26524 4.38968 4.44243C4.31504 4.61962 4.20597 4.7795 4.06909 4.91242C3.9322 5.04533 3.77034 5.14851 3.59328 5.21572C3.41623 5.28292 3.22767 5.31276 3.03901 5.30342C2.82123 5.30342 2.61238 5.39176 2.45839 5.54902C2.3044 5.70627 2.21789 5.91955 2.21789 6.14193C2.21789 6.36432 2.3044 6.5776 2.45839 6.73485C2.61238 6.8921 2.82123 6.98045 3.03901 6.98045H17.3535V14.5499H18.977V6.86745C19.6962 6.67846 20.3225 6.22627 20.7367 5.59679C21.151 4.9673 21.3244 4.20436 21.2241 3.45289C21.1237 2.70142 20.7566 2.01375 20.1924 1.52052C19.6282 1.02729 18.9063 0.762851 18.1637 0.777427H3.00031C2.20007 0.78363 1.43488 1.11358 0.87247 1.69497C0.310064 2.27635 -0.00367184 3.06172 3.2433e-05 3.87894V22.0107C0.000623178 22.2374 0.0893583 22.4546 0.24673 22.6146L2.7004 25.0579C2.85073 25.209 3.05325 25.2938 3.26424 25.2938C3.47522 25.2938 3.67774 25.209 3.82807 25.0579L6.33254 22.5658L8.93253 25.153C9.08286 25.3041 9.28538 25.3889 9.49637 25.3889C9.70735 25.3889 9.90988 25.3041 10.0602 25.153L12.6602 22.5658L14.3381 24.241V21.9131ZM5.78291 2.45445H18.1661C18.3548 2.44548 18.5433 2.47569 18.7203 2.54324C18.8972 2.6108 19.0589 2.7143 19.1955 2.84749C19.3322 2.98067 19.4409 3.14078 19.5152 3.31812C19.5895 3.49546 19.6279 3.68635 19.6279 3.87925C19.6279 4.07214 19.5895 4.26303 19.5152 4.44037C19.4409 4.61771 19.3322 4.77782 19.1955 4.91101C19.0589 5.04419 18.8972 5.14769 18.7203 5.21525C18.5433 5.2828 18.3548 5.31301 18.1661 5.30404H5.78291C6.00945 4.86465 6.12775 4.37551 6.12756 3.87894C6.13087 3.38218 6.01239 2.89248 5.78291 2.45445ZM6.83863 9.19713H5.02468C4.9445 9.19713 4.8676 9.22966 4.8109 9.28756C4.7542 9.34546 4.72235 9.42398 4.72235 9.50586V11.3428C4.72235 11.4247 4.7542 11.5032 4.8109 11.5611C4.8676 11.619 4.9445 11.6515 5.02468 11.6515H6.83863C6.91881 11.6515 6.99571 11.619 7.0524 11.5611C7.1091 11.5032 7.14095 11.4247 7.14095 11.3428V9.50833C7.14127 9.46758 7.13369 9.42717 7.11864 9.38943C7.10359 9.35169 7.08137 9.31736 7.05326 9.28843C7.02516 9.2595 6.99172 9.23654 6.95488 9.22087C6.91805 9.2052 6.87853 9.19713 6.83863 9.19713ZM6.83863 12.5993H5.02468C4.98451 12.5993 4.94475 12.6075 4.90771 12.6234C4.87067 12.6392 4.8371 12.6625 4.80895 12.6917C4.78081 12.721 4.75865 12.7557 4.74378 12.7938C4.72892 12.8319 4.72163 12.8726 4.72235 12.9136V14.7123C4.72235 14.7942 4.7542 14.8727 4.8109 14.9306C4.8676 14.9885 4.9445 15.021 5.02468 15.021H6.83863C6.91881 15.021 6.99571 14.9885 7.0524 14.9306C7.1091 14.8727 7.14095 14.7942 7.14095 14.7123V12.9136C7.14168 12.8726 7.13439 12.8319 7.11952 12.7938C7.10465 12.7557 7.0825 12.721 7.05435 12.6917C7.02621 12.6625 6.99263 12.6392 6.95559 12.6234C6.91855 12.6075 6.87879 12.5993 6.83863 12.5993ZM6.83863 15.9614H5.02468C4.9445 15.9614 4.8676 15.994 4.8109 16.0518C4.7542 16.1097 4.72235 16.1883 4.72235 16.2702V18.1096C4.72235 18.1915 4.7542 18.27 4.8109 18.3279C4.8676 18.3858 4.9445 18.4183 5.02468 18.4183H6.83863C6.91881 18.4183 6.99571 18.3858 7.0524 18.3279C7.1091 18.27 7.14095 18.1915 7.14095 18.1096V16.2757C7.14168 16.2347 7.13439 16.194 7.11952 16.1559C7.10465 16.1178 7.0825 16.0831 7.05435 16.0538C7.02621 16.0245 6.99263 16.0013 6.95559 15.9854C6.91855 15.9696 6.87879 15.9614 6.83863 15.9614ZM13.5321 9.19713H8.27951C8.19933 9.19713 8.12243 9.22966 8.06573 9.28756C8.00904 9.34546 7.97719 9.42398 7.97719 9.50586V11.3428C7.97719 11.4247 8.00904 11.5032 8.06573 11.5611C8.12243 11.619 8.19933 11.6515 8.27951 11.6515H13.5321C13.6123 11.6515 13.6892 11.619 13.7459 11.5611C13.8026 11.5032 13.8344 11.4247 13.8344 11.3428V9.50833C13.8348 9.46758 13.8272 9.42717 13.8121 9.38943C13.7971 9.35169 13.7748 9.31736 13.7467 9.28843C13.7186 9.2595 13.6852 9.23654 13.6484 9.22087C13.6115 9.2052 13.572 9.19713 13.5321 9.19713ZM13.5321 12.5993H8.27951C8.23935 12.5993 8.19958 12.6075 8.16254 12.6234C8.12551 12.6392 8.09193 12.6625 8.06379 12.6917C8.03564 12.721 8.01349 12.7557 7.99862 12.7938C7.98375 12.8319 7.97646 12.8726 7.97719 12.9136V14.7123C7.97719 14.7942 8.00904 14.8727 8.06573 14.9306C8.12243 14.9885 8.19933 15.021 8.27951 15.021H13.5321C13.6123 15.021 13.6892 14.9885 13.7459 14.9306C13.8026 14.8727 13.8344 14.7942 13.8344 14.7123V12.9136C13.8352 12.8726 13.8279 12.8319 13.813 12.7938C13.7981 12.7557 13.776 12.721 13.7478 12.6917C13.7197 12.6625 13.6861 12.6392 13.6491 12.6234C13.612 12.6075 13.5723 12.5993 13.5321 12.5993ZM13.5321 15.9614H8.27951C8.19933 15.9614 8.12243 15.994 8.06573 16.0518C8.00904 16.1097 7.97719 16.1883 7.97719 16.2702V18.1096C7.97719 18.1915 8.00904 18.27 8.06573 18.3279C8.12243 18.3858 8.19933 18.4183 8.27951 18.4183H13.5321C13.6123 18.4183 13.6892 18.3858 13.7459 18.3279C13.8026 18.27 13.8344 18.1915 13.8344 18.1096V16.2757C13.8352 16.2347 13.8279 16.194 13.813 16.1559C13.7981 16.1178 13.776 16.0831 13.7478 16.0538C13.7197 16.0245 13.6861 16.0013 13.6491 15.9854C13.612 15.9696 13.5723 15.9614 13.5321 15.9614Z"
        fill="#F5002E" />
</svg>