<svg width="27" height="27" viewBox="0 0 27 27" fill="none" xmlns="http://www.w3.org/2000/svg">
    <path d="M6.63159 4.62274L8.78261 2.47058L6.63159 4.62274Z" fill="#6637B6" />
    <path
        d="M26.2735 21.3809C26.3265 21.381 26.3789 21.3707 26.4278 21.3505C26.4768 21.3303 26.5212 21.3007 26.5587 21.2633C26.5962 21.2259 26.626 21.1816 26.6464 21.1327C26.6667 21.0838 26.6772 21.0314 26.6773 20.9784V6.77516C26.6773 6.66823 26.6348 6.56569 26.5593 6.49001L22.258 2.1863C22.1824 2.11075 22.0799 2.06828 21.973 2.0682H12.9131V1.9905C12.9133 1.83133 12.8822 1.67367 12.8215 1.52654C12.7608 1.3794 12.6718 1.24567 12.5594 1.13297C12.4471 1.02027 12.3137 0.930817 12.1668 0.869715C12.0199 0.808613 11.8624 0.777059 11.7033 0.776855L2.13319 0.776855C1.81244 0.777267 1.50495 0.904937 1.27815 1.13187C1.05135 1.3588 0.923751 1.66647 0.92334 1.98739V15.0057C0.923751 15.3267 1.05135 15.6343 1.27815 15.8613C1.50495 16.0882 1.81244 16.2159 2.13319 16.2163H5.2246V26.1415C5.2246 26.2484 5.26706 26.351 5.34265 26.4266C5.41823 26.5022 5.52074 26.5447 5.62763 26.5447H26.2735C26.3804 26.5447 26.4829 26.5022 26.5585 26.4266C26.6341 26.351 26.6766 26.2484 26.6766 26.1415V23.1291C26.6766 23.022 26.6341 22.9194 26.5584 22.8437C26.4827 22.768 26.3801 22.7255 26.2731 22.7255C26.1662 22.7255 26.0635 22.768 25.9879 22.8437C25.9122 22.9194 25.8697 23.022 25.8697 23.1291V25.7382H6.03143V16.2163H11.7002C12.0209 16.2159 12.3284 16.0882 12.5552 15.8613C12.782 15.6343 12.9096 15.3267 12.91 15.0057V8.06573C12.91 7.95868 12.8675 7.85601 12.7919 7.78031C12.7162 7.70461 12.6136 7.66209 12.5066 7.66209C12.3996 7.66209 12.297 7.70461 12.2214 7.78031C12.1457 7.85601 12.1032 7.95868 12.1032 8.06573V15.0057C12.103 15.1126 12.0605 15.2151 11.9849 15.2907C11.9094 15.3662 11.807 15.4088 11.7002 15.409H2.13319C2.02637 15.4088 1.92397 15.3662 1.84844 15.2907C1.7729 15.2151 1.73037 15.1126 1.73017 15.0057V1.98739C1.73037 1.88051 1.7729 1.77806 1.84844 1.70248C1.92397 1.6269 2.02637 1.58435 2.13319 1.58414H11.7033C11.8101 1.58435 11.9125 1.6269 11.988 1.70248C12.0636 1.77806 12.1061 1.88051 12.1063 1.98739V5.91427C12.1063 6.02132 12.1488 6.12399 12.2245 6.19968C12.3001 6.27538 12.4027 6.31791 12.5097 6.31791C12.6167 6.31791 12.7193 6.27538 12.795 6.19968C12.8706 6.12399 12.9131 6.02132 12.9131 5.91427V2.87471H21.5708C21.5708 2.88326 21.5708 2.89258 21.5708 2.9019V6.77516C21.5708 6.88211 21.6133 6.98468 21.6888 7.06031C21.7644 7.13593 21.8669 7.17842 21.9738 7.17842H25.8449H25.8721V20.9784C25.8723 21.085 25.9146 21.1871 25.9898 21.2625C26.0651 21.3379 26.1671 21.3805 26.2735 21.3809ZM22.3761 3.44579L25.3005 6.37113H22.3761V3.44579Z"
        fill="#6637B6" />
    <path
        d="M10.8972 19.283H8.20883C8.10184 19.283 7.99923 19.3255 7.92358 19.4012C7.84792 19.4769 7.80542 19.5795 7.80542 19.6866C7.80542 19.7936 7.84792 19.8963 7.92358 19.972C7.99923 20.0477 8.10184 20.0902 8.20883 20.0902H10.8972C11.0042 20.0902 11.1068 20.0477 11.1825 19.972C11.2581 19.8963 11.3006 19.7936 11.3006 19.6866C11.3006 19.5795 11.2581 19.4769 11.1825 19.4012C11.1068 19.3255 11.0042 19.283 10.8972 19.283Z"
        fill="#6637B6" />
    <path
        d="M10.8972 21.4343H8.20883C8.10184 21.4343 7.99923 21.4769 7.92358 21.5525C7.84792 21.6282 7.80542 21.7309 7.80542 21.838C7.80542 21.945 7.84792 22.0477 7.92358 22.1234C7.99923 22.1991 8.10184 22.2416 8.20883 22.2416H10.8972C11.0042 22.2416 11.1068 22.1991 11.1825 22.1234C11.2581 22.0477 11.3006 21.945 11.3006 21.838C11.3006 21.7309 11.2581 21.6282 11.1825 21.5525C11.1068 21.4769 11.0042 21.4343 10.8972 21.4343Z"
        fill="#6637B6" />
    <path
        d="M14.1842 16.3156C14.0893 16.2664 13.9788 16.2569 13.8769 16.2891C13.7751 16.3213 13.6901 16.3925 13.6406 16.4873C13.0366 17.6487 12.8289 18.976 13.0493 20.2666C13.2696 21.5572 13.906 22.7402 14.8611 23.6351C15.8163 24.53 17.0379 25.0877 18.3395 25.2231C19.6411 25.3584 20.9512 25.064 22.0699 24.3847C23.1886 23.7055 24.0545 22.6787 24.5354 21.461C25.0163 20.2434 25.0859 18.9017 24.7335 17.6408C24.3811 16.3799 23.626 15.269 22.5836 14.4775C21.5411 13.6861 20.2685 13.2576 18.9599 13.2575C18.1513 13.2545 17.3506 13.4166 16.6067 13.7339C15.8629 14.0512 15.1915 14.517 14.6338 15.1028C14.5598 15.1799 14.5194 15.2834 14.5216 15.3903C14.5238 15.4973 14.5683 15.599 14.6454 15.673C14.7226 15.7471 14.826 15.7875 14.9329 15.7853C15.0397 15.7831 15.1414 15.7385 15.2154 15.6614C16.1223 14.7182 17.3526 14.1538 18.6587 14.0817C19.9648 14.0097 21.2497 14.4353 22.2547 15.273C23.2598 16.1107 23.9103 17.2982 24.0755 18.5965C24.2406 19.8948 23.9081 21.2075 23.1448 22.2703C22.3815 23.3332 21.2441 24.0673 19.9616 24.3248C18.6791 24.5824 17.3467 24.3443 16.2326 23.6584C15.1185 22.9726 14.3055 21.89 13.9571 20.6285C13.6087 19.367 13.7509 18.0203 14.355 16.8594C14.4044 16.7647 14.4142 16.6541 14.3821 16.5521C14.3501 16.4501 14.2789 16.3651 14.1842 16.3156Z"
        fill="#6637B6" />
    <path
        d="M17.2408 21.8639C17.1338 21.8639 17.0312 21.9064 16.9556 21.9821C16.8799 22.0578 16.8374 22.1605 16.8374 22.2675C16.8374 22.3746 16.8799 22.4773 16.9556 22.553C17.0312 22.6286 17.1338 22.6712 17.2408 22.6712H18.4507V23.1288C18.4507 23.2358 18.4932 23.3385 18.5688 23.4142C18.6445 23.4899 18.7471 23.5324 18.8541 23.5324C18.9611 23.5324 19.0637 23.4899 19.1393 23.4142C19.215 23.3385 19.2575 23.2358 19.2575 23.1288V22.6712H19.8787C20.1995 22.6708 20.507 22.5431 20.7338 22.3162C20.9606 22.0892 21.0882 21.7816 21.0886 21.4607V20.1165C21.0882 19.7968 20.9615 19.4902 20.7362 19.2635C20.511 19.0368 20.2053 18.9083 19.8857 18.906L19.2645 18.8874V16.6467H20.6894C20.7964 16.6467 20.899 16.6041 20.9747 16.5285C21.0504 16.4528 21.0929 16.3501 21.0929 16.243C21.0929 16.136 21.0504 16.0333 20.9747 15.9576C20.899 15.8819 20.7964 15.8394 20.6894 15.8394H19.2645V15.3818C19.2645 15.2747 19.222 15.1721 19.1463 15.0964C19.0707 15.0207 18.9681 14.9781 18.8611 14.9781C18.7541 14.9781 18.6515 15.0207 18.5758 15.0964C18.5002 15.1721 18.4576 15.2747 18.4576 15.3818V15.8394H18.0546C17.7339 15.8398 17.4264 15.9675 17.1996 16.1944C16.9728 16.4213 16.8452 16.729 16.8448 17.0499V18.4484C16.8452 18.7681 16.9718 19.0747 17.1971 19.3015C17.4224 19.5282 17.7281 19.6567 18.0476 19.6589L18.4576 19.6713V21.8647H17.2408V21.8639ZM18.0593 18.8517H18.0476C17.9408 18.8515 17.8384 18.8089 17.7629 18.7333C17.6873 18.6577 17.6448 18.5553 17.6446 18.4484V17.0499C17.6448 16.943 17.6873 16.8406 17.7629 16.765C17.8384 16.6894 17.9408 16.6469 18.0476 16.6467H18.4507V18.8641L18.0593 18.8517ZM19.2575 19.6939L19.864 19.7117H19.8756C19.9825 19.7119 20.0848 19.7545 20.1604 19.8301C20.2359 19.9057 20.2784 20.0081 20.2786 20.115V21.4599C20.2784 21.5668 20.2359 21.6692 20.1604 21.7448C20.0848 21.8204 19.9825 21.8629 19.8756 21.8631H19.2544L19.2575 19.6939Z"
        fill="#6637B6" />
    <path
        d="M11.6232 2.47148C11.6232 2.36453 11.5808 2.26197 11.5052 2.18634C11.4296 2.11072 11.3271 2.06824 11.2202 2.06824H2.61689C2.51 2.06824 2.40749 2.11072 2.33191 2.18634C2.25633 2.26197 2.21387 2.36453 2.21387 2.47148V4.62286C2.21387 4.72981 2.25633 4.83237 2.33191 4.908C2.40749 4.98362 2.51 5.0261 2.61689 5.0261H11.2194C11.3263 5.0261 11.4288 4.98362 11.5044 4.908C11.58 4.83237 11.6224 4.72981 11.6224 4.62286L11.6232 2.47148ZM10.8164 4.21962H3.02069V2.87549H10.8164V4.2204V4.21962Z"
        fill="#6637B6" />
    <path
        d="M4.74073 5.91411C4.74073 5.80716 4.69827 5.7046 4.62269 5.62897C4.54711 5.55335 4.4446 5.51086 4.33771 5.51086H2.61689C2.51 5.51086 2.40749 5.55335 2.33191 5.62897C2.25633 5.7046 2.21387 5.80716 2.21387 5.91411V7.63817C2.21387 7.74512 2.25633 7.84768 2.33191 7.9233C2.40749 7.99893 2.51 8.04141 2.61689 8.04141H4.33771C4.4446 8.04141 4.54711 7.99893 4.62269 7.9233C4.69827 7.84768 4.74073 7.74512 4.74073 7.63817V5.91411ZM3.93391 7.23493H3.02069V6.31734H3.93468L3.93391 7.23493Z"
        fill="#6637B6" />
    <path
        d="M8.18166 5.91411C8.18166 5.80716 8.13919 5.7046 8.06361 5.62897C7.98803 5.55335 7.88552 5.51086 7.77863 5.51086H6.05781C5.95093 5.51086 5.84841 5.55335 5.77283 5.62897C5.69725 5.7046 5.65479 5.80716 5.65479 5.91411V7.63817C5.65479 7.74512 5.69725 7.84768 5.77283 7.9233C5.84841 7.99893 5.95093 8.04141 6.05781 8.04141H7.78096C7.88785 8.04141 7.99036 7.99893 8.06594 7.9233C8.14152 7.84768 8.18398 7.74512 8.18398 7.63817L8.18166 5.91411ZM7.37483 7.23493H6.46084V6.31734H7.37483V7.23493Z"
        fill="#6637B6" />
    <path
        d="M11.6226 5.91411C11.6226 5.80716 11.5801 5.7046 11.5045 5.62897C11.4289 5.55335 11.3264 5.51086 11.2195 5.51086H9.49874C9.39185 5.51086 9.28934 5.55335 9.21376 5.62897C9.13817 5.7046 9.0957 5.80716 9.0957 5.91411V7.63817C9.0957 7.74512 9.13817 7.84768 9.21376 7.9233C9.28934 7.99893 9.39185 8.04141 9.49874 8.04141H11.2195C11.3264 8.04141 11.4289 7.99893 11.5045 7.9233C11.5801 7.84768 11.6226 7.74512 11.6226 7.63817V5.91411ZM10.8158 7.23493H9.90253V6.31734H10.8165L10.8158 7.23493Z"
        fill="#6637B6" />
    <path
        d="M4.74073 9.35709C4.74073 9.25015 4.69827 9.14758 4.62269 9.07196C4.54711 8.99634 4.4446 8.95386 4.33771 8.95386H2.61689C2.51 8.95386 2.40749 8.99634 2.33191 9.07196C2.25633 9.14758 2.21387 9.25015 2.21387 9.35709V11.0788C2.21387 11.1858 2.25633 11.2883 2.33191 11.364C2.40749 11.4396 2.51 11.4821 2.61689 11.4821H4.33771C4.4446 11.4821 4.54711 11.4396 4.62269 11.364C4.69827 11.2883 4.74073 11.1858 4.74073 11.0788V9.35709ZM3.93391 10.6779H3.02069V9.76345H3.93468L3.93391 10.6779Z"
        fill="#6637B6" />
    <path
        d="M8.18166 9.35709C8.18166 9.25015 8.13919 9.14758 8.06361 9.07196C7.98803 8.99634 7.88552 8.95386 7.77863 8.95386H6.05781C5.95093 8.95386 5.84841 8.99634 5.77283 9.07196C5.69725 9.14758 5.65479 9.25015 5.65479 9.35709V11.0788C5.65479 11.1858 5.69725 11.2883 5.77283 11.364C5.84841 11.4396 5.95093 11.4821 6.05781 11.4821H7.78096C7.88785 11.4821 7.99036 11.4396 8.06594 11.364C8.14152 11.2883 8.18398 11.1858 8.18398 11.0788L8.18166 9.35709ZM7.37483 10.6779H6.46084V9.76345H7.37483V10.6779Z"
        fill="#6637B6" />
    <path
        d="M4.33771 12.3966H2.61689C2.51 12.3966 2.40749 12.4391 2.33191 12.5147C2.25633 12.5903 2.21387 12.6929 2.21387 12.7998V14.5216C2.21387 14.6285 2.25633 14.7311 2.33191 14.8067C2.40749 14.8823 2.51 14.9248 2.61689 14.9248H4.33771C4.4446 14.9248 4.54711 14.8823 4.62269 14.8067C4.69827 14.7311 4.74073 14.6285 4.74073 14.5216V12.7998C4.74073 12.6929 4.69827 12.5903 4.62269 12.5147C4.54711 12.4391 4.4446 12.3966 4.33771 12.3966ZM3.93468 14.1183H3.02069V13.2039H3.93468V14.1183Z"
        fill="#6637B6" />
    <path
        d="M7.78096 12.3966H6.05781C5.95093 12.3966 5.84841 12.4391 5.77283 12.5147C5.69725 12.5903 5.65479 12.6929 5.65479 12.7998V14.5216C5.65479 14.6285 5.69725 14.7311 5.77283 14.8067C5.84841 14.8823 5.95093 14.9248 6.05781 14.9248H7.78096C7.88785 14.9248 7.99036 14.8823 8.06594 14.8067C8.14152 14.7311 8.18398 14.6285 8.18398 14.5216V12.7998C8.18398 12.6929 8.14152 12.5903 8.06594 12.5147C7.99036 12.4391 7.88785 12.3966 7.78096 12.3966ZM7.37793 14.1183H6.46084V13.2039H7.37483L7.37793 14.1183Z"
        fill="#6637B6" />
    <path
        d="M11.2195 8.95386H9.49874C9.39185 8.95386 9.28934 8.99634 9.21376 9.07196C9.13817 9.14758 9.0957 9.25015 9.0957 9.35709V14.5215C9.0957 14.6285 9.13817 14.731 9.21376 14.8066C9.28934 14.8823 9.39185 14.9247 9.49874 14.9247H11.2195C11.3264 14.9247 11.4289 14.8823 11.5045 14.8066C11.5801 14.731 11.6226 14.6285 11.6226 14.5215V9.35709C11.6226 9.25015 11.5801 9.14758 11.5045 9.07196C11.4289 8.99634 11.3264 8.95386 11.2195 8.95386ZM10.8165 14.1183H9.90253V9.76111H10.8165V14.1183Z"
        fill="#6637B6" />
    <path
        d="M17.8434 5.1248C17.7872 5.06852 17.7156 5.03013 17.6377 5.01447L16.1436 4.71535L15.4245 3.92208C15.3888 3.88284 15.3457 3.85103 15.2978 3.82845C15.2498 3.80588 15.1978 3.79297 15.1449 3.79048C15.0919 3.78799 15.039 3.79597 14.9891 3.81395C14.9392 3.83193 14.8933 3.85956 14.8541 3.89527C14.8149 3.93098 14.7831 3.97407 14.7606 4.02208C14.738 4.07008 14.7251 4.12206 14.7226 4.17505C14.7201 4.22805 14.7281 4.28101 14.7461 4.33092C14.764 4.38083 14.7917 4.42671 14.8274 4.46594C14.8274 4.46594 15.6567 5.37342 15.6815 5.39207L15.9448 6.70901C15.9605 6.78701 15.9988 6.85863 16.0551 6.9149L22.4802 13.3434C22.7071 13.5693 23.0142 13.696 23.3344 13.696C23.6545 13.696 23.9616 13.5693 24.1886 13.3434L24.2662 13.2657C24.4919 13.0386 24.6186 12.7314 24.6186 12.4111C24.6186 12.0908 24.4919 11.7835 24.2662 11.5564L24.2095 11.4997L24.837 10.8719C24.8745 10.8335 24.9041 10.7881 24.924 10.7382C24.9439 10.6883 24.9538 10.635 24.9531 10.5813C24.9524 10.5276 24.9411 10.4745 24.9198 10.4252C24.8986 10.3759 24.8678 10.3313 24.8292 10.2939L22.6324 8.20698C22.594 8.1705 22.5488 8.14195 22.4994 8.12295C22.4499 8.10395 22.3972 8.09488 22.3443 8.09625C22.2914 8.09762 22.2393 8.10941 22.1909 8.13094C22.1425 8.15247 22.0988 8.18332 22.0624 8.22174C22.0259 8.26015 21.9974 8.30538 21.9784 8.35483C21.9594 8.40427 21.9503 8.45699 21.9517 8.50994C21.9531 8.5629 21.9649 8.61506 21.9864 8.66346C22.0079 8.71186 22.0388 8.75555 22.0771 8.79202L23.9735 10.5938L23.6388 10.9286L17.8434 5.1248ZM16.5513 5.6205L17.3589 5.7821L21.2416 9.67076L20.5955 10.3172L16.7089 6.43241L16.5513 5.6205ZM23.6954 12.6947L23.6178 12.7724C23.5421 12.8478 23.4396 12.8902 23.3328 12.8902C23.226 12.8902 23.1235 12.8478 23.0478 12.7724L21.1663 10.8898L21.8123 10.2434L23.6939 12.1259C23.7694 12.2011 23.8121 12.303 23.8128 12.4095C23.8135 12.516 23.7722 12.6185 23.6978 12.6947H23.6954Z"
        fill="#6637B6" />
</svg>