<svg width="27" height="27" viewBox="0 0 27 27" fill="none" xmlns="http://www.w3.org/2000/svg">
    <path opacity="0.5" fill-rule="evenodd" clip-rule="evenodd"
        d="M20.7416 14.5893C22.0401 14.5891 23.2985 15.0492 24.3023 15.8911C25.3061 16.7331 25.9933 17.9048 26.2466 19.2066C26.5 20.5084 26.3039 21.8597 25.6917 23.0303C25.0796 24.2008 24.0893 25.1182 22.8896 25.626C21.6899 26.1339 20.3551 26.2008 19.1126 25.8153C17.8701 25.4298 16.7968 24.6158 16.0756 23.5121C15.3544 22.4083 15.03 21.083 15.1576 19.7622C15.2852 18.4413 15.8569 17.2065 16.7754 16.2682C17.2957 15.7351 17.914 15.3124 18.5947 15.0243C19.2753 14.7362 20.0049 14.5883 20.7416 14.5893ZM3.1881 1.84003H7.8994C9.23058 0.81543 10.8571 0.27208 12.5233 0.295398C14.1893 0.27223 15.8156 0.815571 17.1466 1.84003H21.8329C22.5833 1.84304 23.3021 2.14938 23.8324 2.69217C24.3627 3.23496 24.6613 3.97013 24.6632 4.73722V13.7512C24.3853 13.5771 24.0965 13.4218 23.7986 13.2864V4.73722C23.7978 4.20315 23.5898 3.69121 23.2204 3.31357C22.851 2.93592 22.3501 2.72337 21.8277 2.72248H16.9968C16.8964 2.72058 16.7995 2.68388 16.7222 2.61839C15.5267 1.65809 14.0435 1.14902 12.5233 1.17718C11.0163 1.15021 9.54547 1.64988 8.35404 2.59354C8.314 2.63444 8.26647 2.66688 8.21417 2.68901C8.16186 2.71113 8.1058 2.72251 8.0492 2.72248H3.18745C2.66498 2.72337 2.16416 2.93592 1.79471 3.31357C1.42527 3.69121 1.21734 4.20315 1.21647 4.73722V22.064C1.21734 22.598 1.42527 23.11 1.79471 23.4876C2.16416 23.8652 2.66498 24.0778 3.18745 24.0787H14.1645C14.3324 24.3863 14.521 24.6816 14.7288 24.9625H3.1881C2.43666 24.9604 1.71663 24.654 1.18558 24.1106C0.654531 23.5671 0.355706 22.8307 0.354492 22.0626L0.354492 4.73722C0.356399 3.96955 0.655531 3.23388 1.18651 2.69099C1.71748 2.1481 2.43711 1.84216 3.1881 1.84003ZM3.5823 21.0062C3.74421 21.0063 3.90244 21.0556 4.03699 21.1476C4.17153 21.2397 4.27636 21.3704 4.33819 21.5234C4.40003 21.6764 4.41611 21.8446 4.3844 22.0069C4.35268 22.1692 4.2746 22.3182 4.16003 22.4352C4.04545 22.5521 3.89952 22.6317 3.7407 22.6638C3.58188 22.696 3.4173 22.6793 3.26777 22.6158C3.11823 22.5524 2.99047 22.445 2.90063 22.3073C2.81078 22.1697 2.7629 22.0078 2.76303 21.8423C2.7632 21.6208 2.84937 21.4084 3.0026 21.2518C3.15584 21.0951 3.36362 21.0071 3.58033 21.0069L3.5823 21.0062ZM12.2822 11.7384C12.2822 11.657 12.3138 11.579 12.3701 11.5214C12.4265 11.4639 12.5028 11.4315 12.5825 11.4315C12.6621 11.4315 12.7385 11.4639 12.7948 11.5214C12.8511 11.579 12.8827 11.657 12.8827 11.7384V12.3355C13.8275 12.2684 14.7242 11.884 15.4331 11.2421L14.9923 10.7915C14.963 10.7633 14.9396 10.7295 14.9234 10.6919C14.9072 10.6543 14.8985 10.6137 14.8979 10.5727C14.8973 10.5316 14.9047 10.4908 14.9198 10.4527C14.9349 10.4146 14.9574 10.3801 14.9858 10.351C15.0142 10.3219 15.048 10.299 15.0853 10.2836C15.1225 10.2682 15.1624 10.2605 15.2026 10.2611C15.2428 10.2618 15.2825 10.2706 15.3193 10.2872C15.356 10.3038 15.3892 10.3277 15.4167 10.3577L15.8549 10.8049C16.4713 10.0717 16.8336 9.15103 16.8858 8.18578H16.2077C16.1281 8.18578 16.0517 8.15344 15.9954 8.09589C15.9391 8.03833 15.9075 7.96026 15.9075 7.87887C15.9075 7.79747 15.9391 7.7194 15.9954 7.66185C16.0517 7.60429 16.1281 7.57195 16.2077 7.57195H16.8785C16.8029 6.6159 16.4233 5.71139 15.7978 4.99645L15.3832 5.42022C15.3264 5.4749 15.2509 5.50482 15.1729 5.50361C15.0948 5.5024 15.0203 5.47017 14.9651 5.41375C14.9099 5.35733 14.8784 5.28116 14.8772 5.20137C14.876 5.12159 14.9053 5.04448 14.9588 4.98638L15.3674 4.56798C14.6585 3.95252 13.7731 3.58909 12.8446 3.53241V4.26376C12.8446 4.34516 12.813 4.42322 12.7567 4.48078C12.7003 4.53833 12.624 4.57067 12.5443 4.57067C12.4647 4.57067 12.3883 4.53833 12.332 4.48078C12.2757 4.42322 12.2441 4.34516 12.2441 4.26376V3.54047C11.3203 3.61397 10.4445 3.9909 9.74753 4.61499L10.2146 5.09181C10.2425 5.12034 10.2646 5.15421 10.2797 5.19147C10.2947 5.22873 10.3025 5.26865 10.3025 5.30897C10.3024 5.34929 10.2946 5.3892 10.2795 5.42644C10.2644 5.46368 10.2422 5.4975 10.2143 5.52599C10.1864 5.55448 10.1533 5.57706 10.1168 5.59246C10.0804 5.60786 10.0413 5.61577 10.0019 5.61574C9.96244 5.61571 9.92339 5.60774 9.88696 5.59228C9.85053 5.57682 9.81744 5.55418 9.78957 5.52565L9.32376 5.0495C8.71469 5.76604 8.34891 6.66487 8.28112 7.61158H9.01366C9.09095 7.61527 9.16387 7.64926 9.21729 7.70647C9.27071 7.76369 9.30051 7.83974 9.30051 7.91883C9.30051 7.99791 9.27071 8.07396 9.21729 8.13118C9.16387 8.18839 9.09095 8.22238 9.01366 8.22607H8.27717C8.33734 9.18107 8.7009 10.0899 9.3126 10.8143L9.77249 10.3442C9.80004 10.3143 9.83318 10.2904 9.86996 10.2738C9.90673 10.2572 9.94639 10.2483 9.98658 10.2477C10.0268 10.2471 10.0667 10.2547 10.1039 10.2702C10.1412 10.2856 10.175 10.3085 10.2034 10.3376C10.2318 10.3666 10.2543 10.4012 10.2694 10.4393C10.2845 10.4774 10.2919 10.5181 10.2913 10.5592C10.2907 10.6003 10.2821 10.6408 10.2658 10.6784C10.2496 10.716 10.2262 10.7499 10.1969 10.7781L9.73701 11.2482C10.4454 11.8859 11.3398 12.2671 12.2815 12.3328V11.7357L12.2822 11.7384ZM21.4427 4.48538C21.6045 4.48551 21.7627 4.53468 21.8972 4.62668C22.0317 4.71868 22.1366 4.84938 22.1984 5.00225C22.2603 5.15513 22.2765 5.32332 22.2449 5.48558C22.2132 5.64784 22.1353 5.79688 22.0209 5.91386C21.9064 6.03085 21.7606 6.11053 21.6019 6.14284C21.4431 6.17515 21.2786 6.15864 21.129 6.09538C20.9795 6.03213 20.8516 5.92498 20.7616 5.78748C20.6716 5.64997 20.6235 5.48828 20.6234 5.32284C20.623 5.21284 20.6439 5.10384 20.6848 5.0021C20.7257 4.90035 20.7859 4.80785 20.8618 4.72988C20.9377 4.65191 21.0279 4.59 21.1272 4.5477C21.2266 4.5054 21.3331 4.48354 21.4407 4.48336L21.4427 4.48538ZM12.8774 8.40471C12.8106 8.47725 12.7189 8.52048 12.6216 8.5253C12.5242 8.53012 12.4288 8.49617 12.3555 8.43058C12.2821 8.36499 12.2365 8.27288 12.2282 8.17361C12.22 8.07435 12.2497 7.97568 12.3111 7.89834L13.8761 6.07098C13.908 6.03083 13.9475 5.99767 13.9922 5.97347C14.0369 5.94927 14.0859 5.93454 14.1363 5.93015C14.1867 5.92575 14.2375 5.9318 14.2856 5.94791C14.3337 5.96402 14.3781 5.98987 14.4162 6.02393C14.4542 6.05798 14.4852 6.09953 14.5072 6.14609C14.5293 6.19265 14.5419 6.24328 14.5443 6.29494C14.5468 6.34659 14.539 6.39823 14.5215 6.44675C14.504 6.49527 14.4771 6.53969 14.4424 6.57735L12.8768 8.4074L12.8774 8.40471ZM12.5805 2.91456C13.7173 2.91442 14.819 3.3172 15.6978 4.05429C16.5767 4.79138 17.1783 5.81716 17.4002 6.95685C17.6221 8.09655 17.4506 9.27963 16.9148 10.3045C16.379 11.3294 15.5121 12.1327 14.4619 12.5775C13.4117 13.0223 12.2431 13.0811 11.1552 12.7439C10.0673 12.4067 9.12744 11.6943 8.49578 10.7282C7.86411 9.76203 7.57971 8.60189 7.69104 7.44543C7.80236 6.28897 8.30252 5.20774 9.1063 4.38598C9.56206 3.91894 10.1036 3.54852 10.6998 3.29601C11.296 3.0435 11.9351 2.91387 12.5805 2.91456ZM3.58033 4.48336C3.74218 4.4835 3.90036 4.53267 4.03488 4.62467C4.1694 4.71667 4.27422 4.84736 4.3361 5.00024C4.39798 5.15311 4.41413 5.32131 4.38252 5.48356C4.35092 5.64582 4.27296 5.79486 4.15852 5.91185C4.04407 6.02883 3.89827 6.10852 3.73954 6.14083C3.5808 6.17314 3.41626 6.15662 3.26671 6.09337C3.11715 6.03012 2.98929 5.92297 2.89929 5.78546C2.80929 5.64796 2.76119 5.48627 2.76106 5.32082C2.76097 5.21082 2.7821 5.10188 2.82325 5.00024C2.86439 4.89859 2.92473 4.80624 3.00082 4.72845C3.07692 4.65067 3.16727 4.58899 3.26671 4.54693C3.36614 4.50488 3.47272 4.48328 3.58033 4.48336ZM8.7916 21.2836H13.2697C13.3157 21.6614 13.3893 22.0352 13.4898 22.4018H8.79226C8.78852 22.4018 8.78481 22.4012 8.78134 22.3997C8.77787 22.3983 8.77472 22.3962 8.77208 22.3935C8.76944 22.3908 8.76736 22.3876 8.76597 22.384C8.76459 22.3805 8.76392 22.3767 8.76401 22.3729V21.3118C8.764 21.3044 8.76682 21.2973 8.77185 21.2921C8.77689 21.2868 8.78374 21.2838 8.79094 21.2836H8.7916ZM19.1064 19.1782L20.2003 20.2413L22.2422 18.1225C22.4328 17.921 22.5517 17.7665 22.7869 18.0123L23.5503 18.8108C23.7993 19.0633 23.7868 19.2138 23.5503 19.4475L20.6339 22.3776C20.1366 22.8759 20.2226 22.9075 19.7187 22.3944L17.8233 20.4683C17.7992 20.4454 17.7803 20.4173 17.7681 20.386C17.7559 20.3548 17.7506 20.3212 17.7526 20.2876C17.7546 20.254 17.7639 20.2213 17.7797 20.1918C17.7956 20.1623 17.8176 20.1368 17.8443 20.117L18.7293 19.1802C18.8607 19.0378 18.9697 19.0459 19.1084 19.1802L19.1064 19.1782Z"
        fill="#22AE34" />
</svg>